<svg width="32" height="32" viewBox="0 0 32 32" fill="none" xmlns="http://www.w3.org/2000/svg">
<path fill-rule="evenodd" clip-rule="evenodd" d="M28.7277 6.81463C29.1027 7.18969 29.3133 7.6983 29.3133 8.22863C29.3133 8.75896 29.1027 9.26758 28.7277 9.64263L13.737 24.6333C13.5389 24.8314 13.3037 24.9886 13.0449 25.0959C12.786 25.2031 12.5086 25.2583 12.2284 25.2583C11.9482 25.2583 11.6707 25.2031 11.4119 25.0959C11.153 24.9886 10.9178 24.8314 10.7197 24.6333L3.27171 17.1866C3.08069 17.0021 2.92832 16.7814 2.82351 16.5374C2.71869 16.2934 2.66352 16.031 2.66121 15.7654C2.6589 15.4999 2.7095 15.2365 2.81007 14.9907C2.91063 14.7449 3.05913 14.5216 3.24692 14.3338C3.4347 14.1461 3.65801 13.9976 3.9038 13.897C4.14959 13.7964 4.41295 13.7458 4.67851 13.7481C4.94407 13.7504 5.20651 13.8056 5.45052 13.9104C5.69453 14.0152 5.91522 14.1676 6.09971 14.3586L12.2277 20.4866L25.8984 6.81463C26.0841 6.62878 26.3046 6.48135 26.5474 6.38076C26.7901 6.28017 27.0503 6.22839 27.313 6.22839C27.5758 6.22839 27.836 6.28017 28.0787 6.38076C28.3214 6.48135 28.542 6.62878 28.7277 6.81463Z" fill="#22505B"/>
</svg>
