<svg width="24" height="25" viewBox="0 0 24 25" fill="none" xmlns="http://www.w3.org/2000/svg">
<path fill-rule="evenodd" clip-rule="evenodd" d="M12 1.75C6.06294 1.75 1.25 6.56294 1.25 12.5C1.25 18.4371 6.06294 23.25 12 23.25C17.9371 23.25 22.75 18.4371 22.75 12.5C22.75 6.56294 17.9371 1.75 12 1.75ZM7.53044 12.4697C7.23755 12.1768 6.76268 12.1768 6.46978 12.4697C6.17689 12.7626 6.17689 13.2374 6.46978 13.5303L9.46978 16.5303C9.76268 16.8232 10.2376 16.8232 10.5304 16.5303L17.5304 9.53033C17.8233 9.23744 17.8233 8.76256 17.5304 8.46967C17.2375 8.17678 16.7627 8.17678 16.4698 8.46967L10.0001 14.9393L7.53044 12.4697Z" fill="#505050"/>
</svg>
