<?xml version="1.0" encoding="UTF-8"?>
<svg xmlns="http://www.w3.org/2000/svg" width="323" height="48" viewBox="0 0 323 48" fill="none">
  <rect width="323" height="48" rx="24" fill="#22505B"></rect>
  <path d="M115.059 23.802H117.719C118.475 23.802 119.016 23.6713 119.343 23.41C119.679 23.1393 119.847 22.738 119.847 22.206C119.847 21.8513 119.791 21.5713 119.679 21.366C119.567 21.1607 119.413 21.002 119.217 20.89C119.021 20.778 118.792 20.708 118.531 20.68C118.279 20.6427 118.008 20.624 117.719 20.624H115.059V23.802ZM113.729 19.504H117.355C117.569 19.504 117.798 19.5087 118.041 19.518C118.293 19.518 118.54 19.532 118.783 19.56C119.025 19.5787 119.249 19.6113 119.455 19.658C119.669 19.7047 119.851 19.7747 120.001 19.868C120.327 20.064 120.603 20.3347 120.827 20.68C121.06 21.0253 121.177 21.45 121.177 21.954C121.177 22.486 121.046 22.948 120.785 23.34C120.533 23.7227 120.169 24.0073 119.693 24.194V24.222C120.309 24.3527 120.78 24.6327 121.107 25.062C121.433 25.4913 121.597 26.014 121.597 26.63C121.597 26.994 121.531 27.3487 121.401 27.694C121.27 28.0393 121.074 28.3473 120.813 28.618C120.561 28.8793 120.243 29.094 119.861 29.262C119.487 29.4207 119.053 29.5 118.559 29.5H113.729V19.504ZM115.059 28.38H118.391C118.979 28.38 119.436 28.2213 119.763 27.904C120.099 27.5867 120.267 27.148 120.267 26.588C120.267 26.2613 120.206 25.9907 120.085 25.776C119.963 25.5613 119.8 25.3933 119.595 25.272C119.399 25.1413 119.17 25.0527 118.909 25.006C118.647 24.95 118.377 24.922 118.097 24.922H115.059V28.38ZM131.293 25.888C131.293 27.1667 130.952 28.128 130.271 28.772C129.589 29.4067 128.619 29.724 127.359 29.724C126.071 29.724 125.063 29.4207 124.335 28.814C123.616 28.198 123.257 27.2227 123.257 25.888V19.504H124.587V25.888C124.587 26.784 124.825 27.4653 125.301 27.932C125.777 28.3893 126.463 28.618 127.359 28.618C128.208 28.618 128.852 28.3893 129.291 27.932C129.739 27.4653 129.963 26.784 129.963 25.888V19.504H131.293V25.888ZM137.546 25.412V29.5H136.216V25.412L132.352 19.504H133.934L136.93 24.264L139.856 19.504H141.368L137.546 25.412ZM146.377 19.504H147.791L153.055 27.61H153.083V19.504H154.343V29.5H152.887L147.665 21.478H147.637V29.5H146.377V19.504ZM157.264 24.502C157.264 25.006 157.33 25.5053 157.46 26C157.591 26.4853 157.796 26.924 158.076 27.316C158.356 27.708 158.716 28.0253 159.154 28.268C159.593 28.5013 160.116 28.618 160.722 28.618C161.329 28.618 161.852 28.5013 162.29 28.268C162.729 28.0253 163.088 27.708 163.368 27.316C163.648 26.924 163.854 26.4853 163.984 26C164.115 25.5053 164.18 25.006 164.18 24.502C164.18 23.998 164.115 23.5033 163.984 23.018C163.854 22.5233 163.648 22.08 163.368 21.688C163.088 21.296 162.729 20.9833 162.29 20.75C161.852 20.5073 161.329 20.386 160.722 20.386C160.116 20.386 159.593 20.5073 159.154 20.75C158.716 20.9833 158.356 21.296 158.076 21.688C157.796 22.08 157.591 22.5233 157.46 23.018C157.33 23.5033 157.264 23.998 157.264 24.502ZM155.934 24.502C155.934 23.8207 156.032 23.1673 156.228 22.542C156.434 21.9073 156.737 21.3473 157.138 20.862C157.54 20.3767 158.039 19.9893 158.636 19.7C159.234 19.4107 159.929 19.266 160.722 19.266C161.516 19.266 162.211 19.4107 162.808 19.7C163.406 19.9893 163.905 20.3767 164.306 20.862C164.708 21.3473 165.006 21.9073 165.202 22.542C165.408 23.1673 165.51 23.8207 165.51 24.502C165.51 25.1833 165.408 25.8413 165.202 26.476C165.006 27.1013 164.708 27.6567 164.306 28.142C163.905 28.6273 163.406 29.0147 162.808 29.304C162.211 29.584 161.516 29.724 160.722 29.724C159.929 29.724 159.234 29.584 158.636 29.304C158.039 29.0147 157.54 28.6273 157.138 28.142C156.737 27.6567 156.434 27.1013 156.228 26.476C156.032 25.8413 155.934 25.1833 155.934 24.502ZM176.161 29.5H174.775L172.493 21.1H172.465L170.155 29.5H168.769L166.207 19.504H167.565L169.525 27.82H169.553L171.793 19.504H173.235L175.447 27.82H175.475L177.505 19.504H178.835L176.161 29.5Z" fill="#FAFAFA"></path>
  <path d="M193 31L206 18M206 18V30.48M206 18H193.52" stroke="#FAFAFA" stroke-width="1.5" stroke-linecap="round" stroke-linejoin="round"></path>
</svg>
