<?xml version="1.0" encoding="UTF-8"?>
<svg xmlns="http://www.w3.org/2000/svg" width="147" height="48" viewBox="0 0 147 48" fill="none">
  <rect x="0.5" width="146" height="48" rx="24" fill="#22505B"></rect>
  <path d="M17.6568 18.032H22.0388C24.2648 18.032 25.3848 18.956 25.3848 20.79C25.3848 21.378 25.2168 21.882 24.9088 22.33C24.6008 22.778 24.1808 23.072 23.6768 23.212C24.0128 23.296 24.2788 23.394 24.4888 23.534C24.6848 23.674 24.8388 23.87 24.9368 24.122C25.0208 24.374 25.0908 24.598 25.1188 24.794C25.1468 24.99 25.1608 25.284 25.1888 25.662C25.1888 25.704 25.1888 25.802 25.2028 25.942C25.2028 26.082 25.2168 26.18 25.2168 26.236C25.2168 26.292 25.2168 26.376 25.2308 26.502C25.2448 26.642 25.2588 26.74 25.2728 26.796C25.2728 26.866 25.2868 26.95 25.3148 27.062C25.3288 27.174 25.3568 27.272 25.3848 27.342C25.4128 27.412 25.4408 27.496 25.4828 27.58C25.5108 27.664 25.5528 27.748 25.6088 27.818C25.6508 27.888 25.7068 27.944 25.7628 28H24.2508C24.1808 27.916 24.1248 27.79 24.0828 27.65C24.0408 27.51 24.0128 27.356 23.9988 27.16C23.9708 26.964 23.9568 26.81 23.9568 26.698C23.9428 26.586 23.9288 26.404 23.9288 26.18C23.9148 25.956 23.9148 25.83 23.9148 25.802C23.8588 24.962 23.6908 24.388 23.3828 24.108C23.0748 23.828 22.4868 23.688 21.5908 23.688H18.9728V28H17.6568V18.032ZM18.9728 19.152V22.638H21.4508C21.7588 22.638 22.0108 22.638 22.2208 22.61C22.4308 22.596 22.6688 22.554 22.9208 22.484C23.1728 22.428 23.3688 22.33 23.5228 22.204C23.6768 22.092 23.8028 21.91 23.9148 21.686C24.0128 21.462 24.0688 21.196 24.0688 20.874C24.0688 20.202 23.8588 19.754 23.4528 19.516C23.0468 19.278 22.5008 19.152 21.8008 19.152H18.9728ZM34.1428 18.032V19.18H28.5568V22.302H33.7788V23.408H28.5568V26.852H34.2128V28H27.2408V18.032H34.1428ZM39.9854 18.032L43.8774 28H42.4074L41.3014 24.948H37.1154L35.9814 28H34.5814L38.5014 18.032H39.9854ZM40.9094 23.898L39.2154 19.292L37.4934 23.898H40.9094ZM44.8775 18.032H48.1115C49.8055 18.032 51.0515 18.424 51.8495 19.208C52.6615 19.992 53.0535 21.238 53.0535 22.932C53.0535 24.612 52.6895 25.872 51.9335 26.726C51.1915 27.58 50.0015 28 48.3635 28H44.8775V18.032ZM46.1795 19.166L46.1935 26.88H48.1955C49.4415 26.88 50.3515 26.572 50.9115 25.956C51.4715 25.34 51.7515 24.388 51.7515 23.086C51.7515 21.728 51.4855 20.734 50.9255 20.104C50.3795 19.488 49.4415 19.166 48.1255 19.166H46.1795ZM58.6454 18.032H60.4654L63.6714 26.474L66.7654 18.032H68.5994V28H67.3534V19.684L64.2314 28H63.0834L59.9054 19.684V28H58.6454V18.032ZM75.0267 17.794C76.5387 17.794 77.7147 18.27 78.5547 19.222C79.3947 20.174 79.8147 21.406 79.8147 22.932C79.8147 24.472 79.3947 25.746 78.5687 26.74C77.7287 27.748 76.5527 28.238 75.0407 28.238C74.2567 28.238 73.5707 28.098 72.9547 27.818C72.3387 27.538 71.8347 27.16 71.4427 26.656C71.0507 26.166 70.7567 25.606 70.5607 24.962C70.3647 24.332 70.2667 23.646 70.2667 22.904C70.2667 21.35 70.6867 20.104 71.5547 19.18C72.4227 18.256 73.5707 17.794 75.0267 17.794ZM75.0267 18.942C73.9067 18.942 73.0527 19.334 72.4647 20.118C71.8767 20.902 71.5687 21.854 71.5687 23.002C71.5687 24.262 71.8907 25.256 72.5207 25.998C73.1507 26.74 73.9907 27.104 75.0407 27.104C76.0907 27.104 76.9307 26.74 77.5607 25.984C78.1767 25.242 78.4987 24.248 78.4987 23.002C78.4987 21.77 78.1767 20.79 77.5467 20.048C76.9167 19.32 76.0767 18.942 75.0267 18.942ZM81.4634 18.032H85.8454C88.0714 18.032 89.1914 18.956 89.1914 20.79C89.1914 21.378 89.0234 21.882 88.7154 22.33C88.4074 22.778 87.9874 23.072 87.4834 23.212C87.8194 23.296 88.0854 23.394 88.2954 23.534C88.4914 23.674 88.6454 23.87 88.7434 24.122C88.8274 24.374 88.8974 24.598 88.9254 24.794C88.9534 24.99 88.9674 25.284 88.9954 25.662C88.9954 25.704 88.9954 25.802 89.0094 25.942C89.0094 26.082 89.0234 26.18 89.0234 26.236C89.0234 26.292 89.0234 26.376 89.0374 26.502C89.0514 26.642 89.0654 26.74 89.0794 26.796C89.0794 26.866 89.0934 26.95 89.1214 27.062C89.1354 27.174 89.1634 27.272 89.1914 27.342C89.2194 27.412 89.2474 27.496 89.2894 27.58C89.3174 27.664 89.3594 27.748 89.4154 27.818C89.4574 27.888 89.5134 27.944 89.5694 28H88.0574C87.9874 27.916 87.9314 27.79 87.8894 27.65C87.8474 27.51 87.8194 27.356 87.8054 27.16C87.7774 26.964 87.7634 26.81 87.7634 26.698C87.7494 26.586 87.7354 26.404 87.7354 26.18C87.7214 25.956 87.7214 25.83 87.7214 25.802C87.6654 24.962 87.4974 24.388 87.1894 24.108C86.8814 23.828 86.2934 23.688 85.3974 23.688H82.7794V28H81.4634V18.032ZM82.7794 19.152V22.638H85.2574C85.5654 22.638 85.8174 22.638 86.0274 22.61C86.2374 22.596 86.4754 22.554 86.7274 22.484C86.9794 22.428 87.1754 22.33 87.3294 22.204C87.4834 22.092 87.6094 21.91 87.7214 21.686C87.8194 21.462 87.8754 21.196 87.8754 20.874C87.8754 20.202 87.6654 19.754 87.2594 19.516C86.8534 19.278 86.3074 19.152 85.6074 19.152H82.7794ZM97.9494 18.032V19.18H92.3634V22.302H97.5854V23.408H92.3634V26.852H98.0194V28H91.0474V18.032H97.9494Z" fill="#FAFAFA"></path>
  <path d="M112.5 31L125.5 18M125.5 18V30.48M125.5 18H113.02" stroke="#FAFAFA" stroke-width="1.5" stroke-linecap="round" stroke-linejoin="round"></path>
</svg>
