<svg width="46" height="32" viewBox="0 0 46 32" fill="none" xmlns="http://www.w3.org/2000/svg">
<rect x="0.5" y="0.5" width="45" height="31" rx="3.5" fill="white"/>
<rect x="0.5" y="0.5" width="45" height="31" rx="3.5" stroke="#D0DAE9"/>
<path fill-rule="evenodd" clip-rule="evenodd" d="M21.4098 20.7039V16.7911H23.4293C24.2569 16.7911 24.9553 16.5138 25.5248 15.9669L25.6614 15.8282C26.7015 14.696 26.6332 12.9321 25.5248 11.8846C24.9705 11.33 24.2113 11.0296 23.4293 11.045H20.1875V20.7039H21.4098ZM21.41 15.6048V12.2311H23.4602C23.9006 12.2311 24.3182 12.4006 24.6295 12.7087C25.2902 13.3557 25.3053 14.434 24.6675 15.1041C24.3562 15.4353 23.9158 15.6202 23.4602 15.6048H21.41ZM31.3631 14.6112C30.8393 14.126 30.1256 13.8795 29.2222 13.8795C28.0606 13.8795 27.1875 14.3108 26.6105 15.1658L27.6885 15.8513C28.0833 15.2659 28.6224 14.9732 29.3057 14.9732C29.7384 14.9732 30.156 15.135 30.4824 15.4277C30.8013 15.705 30.9835 16.1055 30.9835 16.5291V16.8141C30.5128 16.5522 29.9206 16.4136 29.1918 16.4136C28.3415 16.4136 27.6582 16.6139 27.1495 17.0221C26.6408 17.4303 26.3827 17.9695 26.3827 18.655C26.3675 19.2789 26.6332 19.872 27.104 20.2726C27.5823 20.7039 28.1896 20.9196 28.9033 20.9196C29.746 20.9196 30.4141 20.5421 30.9228 19.7873H30.9759V20.7039H32.1451V16.6293C32.1451 15.7743 31.887 15.0965 31.3631 14.6112ZM28.0456 19.4869C27.795 19.3021 27.6431 19.0017 27.6431 18.6782C27.6431 18.3161 27.8102 18.0157 28.1367 17.777C28.4708 17.5382 28.8884 17.415 29.382 17.415C30.0654 17.4072 30.5969 17.5613 30.9766 17.8694C30.9766 18.3932 30.7716 18.8476 30.3691 19.2327C30.0047 19.6025 29.5111 19.8104 28.9947 19.8104C28.653 19.8181 28.3189 19.7026 28.0456 19.4869ZM34.772 23.6077L38.8566 14.0951H37.5279L35.6375 18.8399H35.6147L33.6787 14.0951H32.3501L35.0301 20.2802L33.5117 23.6077H34.772Z" fill="#3C4043"/>
<path d="M17.1915 15.9439C17.1915 15.5665 17.1611 15.1891 17.1004 14.8193H11.9453V16.9529H14.8986C14.7772 17.6384 14.3824 18.2546 13.8054 18.6398V20.0262H15.5668C16.5993 19.0634 17.1915 17.6385 17.1915 15.9439Z" fill="#4285F4"/>
<path d="M11.9442 21.3662C13.4171 21.3662 14.6622 20.8732 15.5657 20.0259L13.8043 18.6395C13.3108 18.9784 12.6807 19.1709 11.9442 19.1709C10.5169 19.1709 9.30977 18.1927 8.87702 16.8833H7.0625V18.316C7.98874 20.1877 9.87917 21.3662 11.9442 21.3662Z" fill="#34A853"/>
<path d="M8.87795 16.8834C8.65015 16.1978 8.65015 15.4507 8.87795 14.7575V13.3325H7.06315C6.28103 14.8961 6.28103 16.7447 7.06315 18.3083L8.87795 16.8834Z" fill="#FBBC04"/>
<path d="M11.9442 12.47C12.7262 12.4546 13.4778 12.755 14.0397 13.3018L15.6036 11.7151C14.6091 10.7754 13.3032 10.2593 11.9442 10.2747C9.87917 10.2747 7.98874 11.4609 7.0625 13.3326L8.87702 14.7653C9.30977 13.4482 10.5169 12.47 11.9442 12.47Z" fill="#EA4335"/>
</svg>
