<?xml version="1.0" encoding="UTF-8"?>
<svg xmlns="http://www.w3.org/2000/svg" width="136" height="49" viewBox="0 0 136 49" fill="none">
  <rect y="0.5" width="136" height="48" rx="24" fill="#22505B"></rect>
  <path d="M25.0956 21.458L23.8076 21.472C23.6676 20.114 22.8416 19.442 21.3296 19.442C20.6156 19.442 20.0556 19.582 19.6636 19.876C19.2716 20.156 19.0756 20.562 19.0756 21.094C19.0756 21.276 19.1036 21.444 19.1596 21.584C19.2156 21.724 19.3136 21.836 19.4536 21.948C19.5936 22.06 19.7196 22.144 19.8316 22.228C19.9576 22.298 20.1536 22.368 20.4056 22.438C20.6716 22.522 20.8816 22.578 21.0356 22.606C21.2036 22.634 21.4416 22.69 21.7776 22.76C22.1976 22.844 22.5336 22.928 22.7996 22.998C23.0796 23.068 23.4016 23.18 23.7656 23.334C24.1436 23.502 24.4376 23.67 24.6616 23.866C24.8856 24.062 25.0676 24.314 25.2356 24.622C25.4036 24.944 25.4736 25.308 25.4736 25.7C25.4736 26.4 25.2776 26.988 24.8856 27.464C24.4936 27.94 24.0176 28.262 23.4576 28.444C22.8976 28.64 22.2816 28.724 21.5956 28.724C20.3496 28.724 19.3556 28.43 18.5996 27.842C17.8436 27.254 17.4656 26.372 17.4656 25.21H18.7396C18.7676 26.064 19.0616 26.68 19.5936 27.072C20.1396 27.464 20.8396 27.66 21.7076 27.66C22.3936 27.66 22.9816 27.506 23.4716 27.226C23.9476 26.946 24.1996 26.484 24.1996 25.84C24.1996 25.532 24.1296 25.28 24.0036 25.07C23.8636 24.86 23.6676 24.692 23.3876 24.552C23.1076 24.412 22.8276 24.314 22.5476 24.23C22.2676 24.146 21.8896 24.048 21.4416 23.95C21.3716 23.936 21.3296 23.922 21.3016 23.908C20.2656 23.684 19.5936 23.488 19.2856 23.348C18.3056 22.928 17.8296 22.214 17.8296 21.178C17.8296 20.226 18.1796 19.526 18.8796 19.05C19.5796 18.574 20.4336 18.336 21.4276 18.336C22.5196 18.336 23.4016 18.602 24.0456 19.12C24.7036 19.652 25.0536 20.422 25.0956 21.458ZM34.0197 18.532V19.68H28.4337V22.802H33.6557V23.908H28.4337V27.352H34.0897V28.5H27.1177V18.532H34.0197ZM42.5783 18.532V19.68H36.9923V22.802H42.2143V23.908H36.9923V27.352H42.6483V28.5H35.6763V18.532H42.5783ZM48.1454 18.532H49.9654L53.1714 26.974L56.2654 18.532H58.0994V28.5H56.8534V20.184L53.7314 28.5H52.5834L49.4054 20.184V28.5H48.1454V18.532ZM64.5267 18.294C66.0387 18.294 67.2147 18.77 68.0547 19.722C68.8947 20.674 69.3147 21.906 69.3147 23.432C69.3147 24.972 68.8947 26.246 68.0687 27.24C67.2287 28.248 66.0527 28.738 64.5407 28.738C63.7567 28.738 63.0707 28.598 62.4547 28.318C61.8387 28.038 61.3347 27.66 60.9427 27.156C60.5507 26.666 60.2567 26.106 60.0607 25.462C59.8647 24.832 59.7667 24.146 59.7667 23.404C59.7667 21.85 60.1867 20.604 61.0547 19.68C61.9227 18.756 63.0707 18.294 64.5267 18.294ZM64.5267 19.442C63.4067 19.442 62.5527 19.834 61.9647 20.618C61.3767 21.402 61.0687 22.354 61.0687 23.502C61.0687 24.762 61.3907 25.756 62.0207 26.498C62.6507 27.24 63.4907 27.604 64.5407 27.604C65.5907 27.604 66.4307 27.24 67.0607 26.484C67.6767 25.742 67.9987 24.748 67.9987 23.502C67.9987 22.27 67.6767 21.29 67.0467 20.548C66.4167 19.82 65.5767 19.442 64.5267 19.442ZM70.9634 18.532H75.3454C77.5714 18.532 78.6914 19.456 78.6914 21.29C78.6914 21.878 78.5234 22.382 78.2154 22.83C77.9074 23.278 77.4874 23.572 76.9834 23.712C77.3194 23.796 77.5854 23.894 77.7954 24.034C77.9914 24.174 78.1454 24.37 78.2434 24.622C78.3274 24.874 78.3974 25.098 78.4254 25.294C78.4534 25.49 78.4674 25.784 78.4954 26.162C78.4954 26.204 78.4954 26.302 78.5094 26.442C78.5094 26.582 78.5234 26.68 78.5234 26.736C78.5234 26.792 78.5234 26.876 78.5374 27.002C78.5514 27.142 78.5654 27.24 78.5794 27.296C78.5794 27.366 78.5934 27.45 78.6214 27.562C78.6354 27.674 78.6634 27.772 78.6914 27.842C78.7194 27.912 78.7474 27.996 78.7894 28.08C78.8174 28.164 78.8594 28.248 78.9154 28.318C78.9574 28.388 79.0134 28.444 79.0694 28.5H77.5574C77.4874 28.416 77.4314 28.29 77.3894 28.15C77.3474 28.01 77.3194 27.856 77.3054 27.66C77.2774 27.464 77.2634 27.31 77.2634 27.198C77.2494 27.086 77.2354 26.904 77.2354 26.68C77.2214 26.456 77.2214 26.33 77.2214 26.302C77.1654 25.462 76.9974 24.888 76.6894 24.608C76.3814 24.328 75.7934 24.188 74.8974 24.188H72.2794V28.5H70.9634V18.532ZM72.2794 19.652V23.138H74.7574C75.0654 23.138 75.3174 23.138 75.5274 23.11C75.7374 23.096 75.9754 23.054 76.2274 22.984C76.4794 22.928 76.6754 22.83 76.8294 22.704C76.9834 22.592 77.1094 22.41 77.2214 22.186C77.3194 21.962 77.3754 21.696 77.3754 21.374C77.3754 20.702 77.1654 20.254 76.7594 20.016C76.3534 19.778 75.8074 19.652 75.1074 19.652H72.2794ZM87.4494 18.532V19.68H81.8634V22.802H87.0854V23.908H81.8634V27.352H87.5194V28.5H80.5474V18.532H87.4494Z" fill="#FAFAFA"></path>
  <path d="M102 31.5L115 18.5M115 18.5V30.98M115 18.5H102.52" stroke="#FAFAFA" stroke-width="1.5" stroke-linecap="round" stroke-linejoin="round"></path>
</svg>
