<?xml version="1.0" encoding="UTF-8"?>
<svg xmlns="http://www.w3.org/2000/svg" width="348" height="48" viewBox="0 0 348 48" fill="none">
  <rect width="348" height="48" rx="24" fill="#22505B"></rect>
  <path d="M45.0897 20.958L43.8017 20.972C43.6617 19.614 42.8357 18.942 41.3237 18.942C40.6097 18.942 40.0497 19.082 39.6577 19.376C39.2657 19.656 39.0697 20.062 39.0697 20.594C39.0697 20.776 39.0977 20.944 39.1537 21.084C39.2097 21.224 39.3077 21.336 39.4477 21.448C39.5877 21.56 39.7137 21.644 39.8257 21.728C39.9517 21.798 40.1477 21.868 40.3997 21.938C40.6657 22.022 40.8757 22.078 41.0297 22.106C41.1977 22.134 41.4357 22.19 41.7717 22.26C42.1917 22.344 42.5277 22.428 42.7937 22.498C43.0737 22.568 43.3957 22.68 43.7597 22.834C44.1377 23.002 44.4317 23.17 44.6557 23.366C44.8797 23.562 45.0617 23.814 45.2297 24.122C45.3977 24.444 45.4677 24.808 45.4677 25.2C45.4677 25.9 45.2717 26.488 44.8797 26.964C44.4877 27.44 44.0117 27.762 43.4517 27.944C42.8917 28.14 42.2757 28.224 41.5897 28.224C40.3437 28.224 39.3497 27.93 38.5937 27.342C37.8377 26.754 37.4597 25.872 37.4597 24.71H38.7337C38.7617 25.564 39.0557 26.18 39.5877 26.572C40.1337 26.964 40.8337 27.16 41.7017 27.16C42.3877 27.16 42.9757 27.006 43.4657 26.726C43.9417 26.446 44.1937 25.984 44.1937 25.34C44.1937 25.032 44.1237 24.78 43.9977 24.57C43.8577 24.36 43.6617 24.192 43.3817 24.052C43.1017 23.912 42.8217 23.814 42.5417 23.73C42.2617 23.646 41.8837 23.548 41.4357 23.45C41.3657 23.436 41.3237 23.422 41.2957 23.408C40.2597 23.184 39.5877 22.988 39.2797 22.848C38.2997 22.428 37.8237 21.714 37.8237 20.678C37.8237 19.726 38.1737 19.026 38.8737 18.55C39.5737 18.074 40.4277 17.836 41.4217 17.836C42.5137 17.836 43.3957 18.102 44.0397 18.62C44.6977 19.152 45.0477 19.922 45.0897 20.958ZM54.0139 18.032V19.18H48.4279V22.302H53.6499V23.408H48.4279V26.852H54.0839V28H47.1119V18.032H54.0139ZM62.5725 18.032V19.18H56.9865V22.302H62.2085V23.408H56.9865V26.852H62.6425V28H55.6705V18.032H62.5725ZM67.6635 21.294C67.6915 20.272 67.9715 19.488 68.5175 18.928C69.0635 18.368 69.8335 18.088 70.8135 18.088C71.6815 18.088 72.3955 18.326 72.9275 18.802C73.4595 19.278 73.7255 19.894 73.7255 20.678C73.7255 21.14 73.5995 21.56 73.3615 21.924C73.1235 22.288 72.7875 22.568 72.3675 22.75C72.9275 22.876 73.3615 23.156 73.6975 23.59C74.0195 24.01 74.1875 24.528 74.1875 25.144C74.1875 26.054 73.8795 26.796 73.2355 27.356C72.5915 27.916 71.7655 28.21 70.7575 28.21C69.7495 28.21 68.9375 27.93 68.3355 27.37C67.7335 26.81 67.4395 26.068 67.4395 25.13V24.948H68.6155C68.6435 25.648 68.8395 26.194 69.2175 26.586C69.5815 26.964 70.0995 27.16 70.7715 27.16C71.4015 27.16 71.9195 26.978 72.3115 26.614C72.7035 26.25 72.8995 25.788 72.8995 25.214C72.8995 24.64 72.7035 24.178 72.3115 23.828C71.9195 23.492 71.3735 23.31 70.7015 23.31C70.5335 23.31 70.3235 23.338 70.0575 23.366V22.358C70.1975 22.372 70.3235 22.372 70.4635 22.372C71.0795 22.372 71.5695 22.232 71.9335 21.938C72.2975 21.644 72.4655 21.238 72.4655 20.734C72.4655 20.258 72.3115 19.866 72.0035 19.558C71.6955 19.264 71.2755 19.11 70.7575 19.11C70.1555 19.11 69.6935 19.306 69.3575 19.684C69.0215 20.062 68.8395 20.594 68.8255 21.294H67.6635ZM81.3928 18.256L81.3788 19.306H77.3608L76.7728 22.26C77.2628 21.742 77.9348 21.476 78.7888 21.476C79.7128 21.476 80.4688 21.784 81.0568 22.386C81.6308 22.988 81.9248 23.772 81.9248 24.724C81.9248 25.732 81.6028 26.572 80.9728 27.216C80.3288 27.874 79.5028 28.196 78.4948 28.196C77.5428 28.196 76.7868 27.944 76.1988 27.412C75.6108 26.894 75.3168 26.194 75.2888 25.326H76.4928C76.5348 25.886 76.7448 26.334 77.1228 26.67C77.4868 27.02 77.9488 27.188 78.5088 27.188C79.1248 27.188 79.6288 26.964 80.0488 26.516C80.4548 26.068 80.6648 25.522 80.6648 24.85C80.6648 24.164 80.4548 23.604 80.0628 23.17C79.6568 22.736 79.1388 22.512 78.4948 22.512C77.6688 22.512 77.0388 22.834 76.5908 23.478L75.5688 23.408L76.4928 18.256H81.3928ZM87.5901 18.088V28H86.2881V20.818H83.7961V19.922C84.5941 19.922 85.2241 19.796 85.7001 19.53C86.1761 19.278 86.4841 18.788 86.6521 18.088H87.5901ZM94.0954 28V24.906H91.0434V24.08H94.0954V20.986H95.0194V24.08H98.0714V24.906H95.0194V28H94.0954ZM107.651 18.032H112.033C114.259 18.032 115.379 18.956 115.379 20.79C115.379 21.378 115.211 21.882 114.903 22.33C114.595 22.778 114.175 23.072 113.671 23.212C114.007 23.296 114.273 23.394 114.483 23.534C114.679 23.674 114.833 23.87 114.931 24.122C115.015 24.374 115.085 24.598 115.113 24.794C115.141 24.99 115.155 25.284 115.183 25.662C115.183 25.704 115.183 25.802 115.197 25.942C115.197 26.082 115.211 26.18 115.211 26.236C115.211 26.292 115.211 26.376 115.225 26.502C115.239 26.642 115.253 26.74 115.267 26.796C115.267 26.866 115.281 26.95 115.309 27.062C115.323 27.174 115.351 27.272 115.379 27.342C115.407 27.412 115.435 27.496 115.477 27.58C115.505 27.664 115.547 27.748 115.603 27.818C115.645 27.888 115.701 27.944 115.757 28H114.245C114.175 27.916 114.119 27.79 114.077 27.65C114.035 27.51 114.007 27.356 113.993 27.16C113.965 26.964 113.951 26.81 113.951 26.698C113.937 26.586 113.923 26.404 113.923 26.18C113.909 25.956 113.909 25.83 113.909 25.802C113.853 24.962 113.685 24.388 113.377 24.108C113.069 23.828 112.481 23.688 111.585 23.688H108.967V28H107.651V18.032ZM108.967 19.152V22.638H111.445C111.753 22.638 112.005 22.638 112.215 22.61C112.425 22.596 112.663 22.554 112.915 22.484C113.167 22.428 113.363 22.33 113.517 22.204C113.671 22.092 113.797 21.91 113.909 21.686C114.007 21.462 114.063 21.196 114.063 20.874C114.063 20.202 113.853 19.754 113.447 19.516C113.041 19.278 112.495 19.152 111.795 19.152H108.967ZM124.137 18.032V19.18H118.551V22.302H123.773V23.408H118.551V26.852H124.207V28H117.235V18.032H124.137ZM124.659 18.032H126.116L128.986 26.712L131.883 18.032H133.27L129.714 28H128.202L124.659 18.032ZM135.724 18.032V28H134.408V18.032H135.724ZM144.877 18.032V19.18H139.291V22.302H144.513V23.408H139.291V26.852H144.947V28H137.975V18.032H144.877ZM145.624 18.032H146.982L148.956 26.362L151.21 18.032H152.652L154.878 26.362L156.922 18.032H158.238L155.578 28H154.192L151.896 19.656L149.572 28H148.186L145.624 18.032ZM166.551 20.958L165.263 20.972C165.123 19.614 164.297 18.942 162.785 18.942C162.071 18.942 161.511 19.082 161.119 19.376C160.727 19.656 160.531 20.062 160.531 20.594C160.531 20.776 160.559 20.944 160.615 21.084C160.671 21.224 160.769 21.336 160.909 21.448C161.049 21.56 161.175 21.644 161.287 21.728C161.413 21.798 161.609 21.868 161.861 21.938C162.127 22.022 162.337 22.078 162.491 22.106C162.659 22.134 162.897 22.19 163.233 22.26C163.653 22.344 163.989 22.428 164.255 22.498C164.535 22.568 164.857 22.68 165.221 22.834C165.599 23.002 165.893 23.17 166.117 23.366C166.341 23.562 166.523 23.814 166.691 24.122C166.859 24.444 166.929 24.808 166.929 25.2C166.929 25.9 166.733 26.488 166.341 26.964C165.949 27.44 165.473 27.762 164.913 27.944C164.353 28.14 163.737 28.224 163.051 28.224C161.805 28.224 160.811 27.93 160.055 27.342C159.299 26.754 158.921 25.872 158.921 24.71H160.195C160.223 25.564 160.517 26.18 161.049 26.572C161.595 26.964 162.295 27.16 163.163 27.16C163.849 27.16 164.437 27.006 164.927 26.726C165.403 26.446 165.655 25.984 165.655 25.34C165.655 25.032 165.585 24.78 165.459 24.57C165.319 24.36 165.123 24.192 164.843 24.052C164.563 23.912 164.283 23.814 164.003 23.73C163.723 23.646 163.345 23.548 162.897 23.45C162.827 23.436 162.785 23.422 162.757 23.408C161.721 23.184 161.049 22.988 160.741 22.848C159.761 22.428 159.285 21.714 159.285 20.678C159.285 19.726 159.635 19.026 160.335 18.55C161.035 18.074 161.889 17.836 162.883 17.836C163.975 17.836 164.857 18.102 165.501 18.62C166.159 19.152 166.509 19.922 166.551 20.958ZM176.669 17.794C178.181 17.794 179.357 18.27 180.197 19.222C181.037 20.174 181.457 21.406 181.457 22.932C181.457 24.472 181.037 25.746 180.211 26.74C179.371 27.748 178.195 28.238 176.683 28.238C175.899 28.238 175.213 28.098 174.597 27.818C173.981 27.538 173.477 27.16 173.085 26.656C172.693 26.166 172.399 25.606 172.203 24.962C172.007 24.332 171.909 23.646 171.909 22.904C171.909 21.35 172.329 20.104 173.197 19.18C174.065 18.256 175.213 17.794 176.669 17.794ZM176.669 18.942C175.549 18.942 174.695 19.334 174.107 20.118C173.519 20.902 173.211 21.854 173.211 23.002C173.211 24.262 173.533 25.256 174.163 25.998C174.793 26.74 175.633 27.104 176.683 27.104C177.733 27.104 178.573 26.74 179.203 25.984C179.819 25.242 180.141 24.248 180.141 23.002C180.141 21.77 179.819 20.79 179.189 20.048C178.559 19.32 177.719 18.942 176.669 18.942ZM183.05 18.032H184.492L189.756 26.124V18.032H191.03V28H189.546L184.31 20.006V28H183.05V18.032ZM204.022 18.032V19.18H200.676V28H199.36V19.18H196.014V18.032H204.022ZM205.145 18.032H209.527C211.753 18.032 212.873 18.956 212.873 20.79C212.873 21.378 212.705 21.882 212.397 22.33C212.089 22.778 211.669 23.072 211.165 23.212C211.501 23.296 211.767 23.394 211.977 23.534C212.173 23.674 212.327 23.87 212.425 24.122C212.509 24.374 212.579 24.598 212.607 24.794C212.635 24.99 212.649 25.284 212.677 25.662C212.677 25.704 212.677 25.802 212.691 25.942C212.691 26.082 212.705 26.18 212.705 26.236C212.705 26.292 212.705 26.376 212.719 26.502C212.733 26.642 212.747 26.74 212.761 26.796C212.761 26.866 212.775 26.95 212.803 27.062C212.817 27.174 212.845 27.272 212.873 27.342C212.901 27.412 212.929 27.496 212.971 27.58C212.999 27.664 213.041 27.748 213.097 27.818C213.139 27.888 213.195 27.944 213.251 28H211.739C211.669 27.916 211.613 27.79 211.571 27.65C211.529 27.51 211.501 27.356 211.487 27.16C211.459 26.964 211.445 26.81 211.445 26.698C211.431 26.586 211.417 26.404 211.417 26.18C211.403 25.956 211.403 25.83 211.403 25.802C211.347 24.962 211.179 24.388 210.871 24.108C210.563 23.828 209.975 23.688 209.079 23.688H206.461V28H205.145V18.032ZM206.461 19.152V22.638H208.939C209.247 22.638 209.499 22.638 209.709 22.61C209.919 22.596 210.157 22.554 210.409 22.484C210.661 22.428 210.857 22.33 211.011 22.204C211.165 22.092 211.291 21.91 211.403 21.686C211.501 21.462 211.557 21.196 211.557 20.874C211.557 20.202 211.347 19.754 210.941 19.516C210.535 19.278 209.989 19.152 209.289 19.152H206.461ZM214.659 18.032H215.989V24.318C215.989 25.298 216.199 25.998 216.619 26.446C217.039 26.894 217.725 27.118 218.677 27.118C219.657 27.118 220.343 26.894 220.749 26.432C221.155 25.984 221.365 25.27 221.365 24.318V18.032H222.695V23.968C222.695 25.424 222.387 26.502 221.785 27.188C221.169 27.874 220.133 28.21 218.677 28.21C217.249 28.21 216.227 27.888 215.597 27.216C214.967 26.544 214.659 25.508 214.659 24.108V18.032ZM231.889 20.958L230.601 20.972C230.461 19.614 229.635 18.942 228.123 18.942C227.409 18.942 226.849 19.082 226.457 19.376C226.065 19.656 225.869 20.062 225.869 20.594C225.869 20.776 225.897 20.944 225.953 21.084C226.009 21.224 226.107 21.336 226.247 21.448C226.387 21.56 226.513 21.644 226.625 21.728C226.751 21.798 226.947 21.868 227.199 21.938C227.465 22.022 227.675 22.078 227.829 22.106C227.997 22.134 228.235 22.19 228.571 22.26C228.991 22.344 229.327 22.428 229.593 22.498C229.873 22.568 230.195 22.68 230.559 22.834C230.937 23.002 231.231 23.17 231.455 23.366C231.679 23.562 231.861 23.814 232.029 24.122C232.197 24.444 232.267 24.808 232.267 25.2C232.267 25.9 232.071 26.488 231.679 26.964C231.287 27.44 230.811 27.762 230.251 27.944C229.691 28.14 229.075 28.224 228.389 28.224C227.143 28.224 226.149 27.93 225.393 27.342C224.637 26.754 224.259 25.872 224.259 24.71H225.533C225.561 25.564 225.855 26.18 226.387 26.572C226.933 26.964 227.633 27.16 228.501 27.16C229.187 27.16 229.775 27.006 230.265 26.726C230.741 26.446 230.993 25.984 230.993 25.34C230.993 25.032 230.923 24.78 230.797 24.57C230.657 24.36 230.461 24.192 230.181 24.052C229.901 23.912 229.621 23.814 229.341 23.73C229.061 23.646 228.683 23.548 228.235 23.45C228.165 23.436 228.123 23.422 228.095 23.408C227.059 23.184 226.387 22.988 226.079 22.848C225.099 22.428 224.623 21.714 224.623 20.678C224.623 19.726 224.973 19.026 225.673 18.55C226.373 18.074 227.227 17.836 228.221 17.836C229.313 17.836 230.195 18.102 230.839 18.62C231.497 19.152 231.847 19.922 231.889 20.958ZM240.827 18.032V19.18H237.481V28H236.165V19.18H232.819V18.032H240.827ZM242.006 18.032H246.094C247.116 18.032 247.928 18.27 248.53 18.732C249.118 19.194 249.426 19.922 249.426 20.902C249.426 22.918 248.292 23.912 246.024 23.912H243.322V28H242.006V18.032ZM243.308 19.166V22.806H245.842C246.556 22.806 247.116 22.68 247.508 22.414C247.9 22.148 248.096 21.672 248.096 20.986C248.096 20.608 248.04 20.286 247.914 20.034C247.788 19.782 247.606 19.6 247.354 19.474C247.116 19.362 246.864 19.278 246.598 19.236C246.346 19.194 246.024 19.166 245.66 19.166H243.308ZM252.4 18.032V28H251.084V18.032H252.4ZM261.273 26.852V28H254.665V18.032H255.981V26.852H261.273ZM266.63 17.794C268.142 17.794 269.318 18.27 270.158 19.222C270.998 20.174 271.418 21.406 271.418 22.932C271.418 24.472 270.998 25.746 270.172 26.74C269.332 27.748 268.156 28.238 266.644 28.238C265.86 28.238 265.174 28.098 264.558 27.818C263.942 27.538 263.438 27.16 263.046 26.656C262.654 26.166 262.36 25.606 262.164 24.962C261.968 24.332 261.87 23.646 261.87 22.904C261.87 21.35 262.29 20.104 263.158 19.18C264.026 18.256 265.174 17.794 266.63 17.794ZM266.63 18.942C265.51 18.942 264.656 19.334 264.068 20.118C263.48 20.902 263.172 21.854 263.172 23.002C263.172 24.262 263.494 25.256 264.124 25.998C264.754 26.74 265.594 27.104 266.644 27.104C267.694 27.104 268.534 26.74 269.164 25.984C269.78 25.242 270.102 24.248 270.102 23.002C270.102 21.77 269.78 20.79 269.15 20.048C268.52 19.32 267.68 18.942 266.63 18.942ZM279.983 18.032V19.18H276.637V28H275.321V19.18H271.975V18.032H279.983Z" fill="white"></path>
  <path d="M294 31L307 18M307 18V30.48M307 18H294.52" stroke="#FAFAFA" stroke-width="1.5" stroke-linecap="round" stroke-linejoin="round"></path>
</svg>
