<?xml version="1.0" encoding="UTF-8"?>
<svg xmlns="http://www.w3.org/2000/svg" width="170" height="49" viewBox="0 0 170 49" fill="none">
  <rect x="0.5" y="0.249023" width="169" height="48" rx="24" fill="#FAFAFA"></rect>
  <path d="M16.7318 18.281H18.1878L21.0578 26.961L23.9558 18.281H25.3418L21.7858 28.249H20.2738L16.7318 18.281ZM27.7964 18.281V28.249H26.4804V18.281H27.7964ZM36.9494 18.281V19.429H31.3634V22.551H36.5854V23.657H31.3634V27.101H37.0194V28.249H30.0474V18.281H36.9494ZM37.696 18.281H39.054L41.028 26.611L43.282 18.281H44.724L46.95 26.611L48.994 18.281H50.31L47.65 28.249H46.264L43.968 19.905L41.644 28.249H40.258L37.696 18.281ZM63.9054 24.483C63.7934 25.743 63.3454 26.737 62.5894 27.437C61.8334 28.137 60.8254 28.487 59.5794 28.487C58.1654 28.487 57.0454 28.025 56.2194 27.087C55.3794 26.149 54.9734 24.875 54.9734 23.279C54.9734 21.795 55.3794 20.549 56.2194 19.555C57.0594 18.561 58.2074 18.057 59.6914 18.057C60.7414 18.057 61.6654 18.351 62.4634 18.911C63.2754 19.485 63.7234 20.269 63.8074 21.277H62.4914C62.3514 20.633 62.0154 20.115 61.5114 19.751C61.0074 19.387 60.3914 19.191 59.6494 19.191C58.5434 19.191 57.7034 19.583 57.1434 20.367C56.5834 21.151 56.3034 22.117 56.3034 23.265C56.3034 24.539 56.5974 25.533 57.1994 26.261C57.7874 26.989 58.6134 27.353 59.6494 27.353C60.4894 27.353 61.1754 27.115 61.6794 26.625C62.1834 26.135 62.4774 25.421 62.5894 24.483H63.9054ZM69.7669 18.043C71.2789 18.043 72.4549 18.519 73.2949 19.471C74.1349 20.423 74.5549 21.655 74.5549 23.181C74.5549 24.721 74.1349 25.995 73.3089 26.989C72.4689 27.997 71.2929 28.487 69.7809 28.487C68.9969 28.487 68.3109 28.347 67.6949 28.067C67.0789 27.787 66.5749 27.409 66.1829 26.905C65.7909 26.415 65.4969 25.855 65.3009 25.211C65.1049 24.581 65.0069 23.895 65.0069 23.153C65.0069 21.599 65.4269 20.353 66.2949 19.429C67.1629 18.505 68.3109 18.043 69.7669 18.043ZM69.7669 19.191C68.6469 19.191 67.7929 19.583 67.2049 20.367C66.6169 21.151 66.3089 22.103 66.3089 23.251C66.3089 24.511 66.6309 25.505 67.2609 26.247C67.8909 26.989 68.7309 27.353 69.7809 27.353C70.8309 27.353 71.6709 26.989 72.3009 26.233C72.9169 25.491 73.2389 24.497 73.2389 23.251C73.2389 22.019 72.9169 21.039 72.2869 20.297C71.6569 19.569 70.8169 19.191 69.7669 19.191ZM76.1337 18.281H77.4637V24.567C77.4637 25.547 77.6737 26.247 78.0937 26.695C78.5137 27.143 79.1997 27.367 80.1517 27.367C81.1317 27.367 81.8177 27.143 82.2237 26.681C82.6297 26.233 82.8397 25.519 82.8397 24.567V18.281H84.1697V24.217C84.1697 25.673 83.8617 26.751 83.2597 27.437C82.6437 28.123 81.6077 28.459 80.1517 28.459C78.7237 28.459 77.7017 28.137 77.0717 27.465C76.4417 26.793 76.1337 25.757 76.1337 24.357V18.281ZM86.3072 18.281H90.6892C92.9152 18.281 94.0352 19.205 94.0352 21.039C94.0352 21.627 93.8672 22.131 93.5592 22.579C93.2512 23.027 92.8312 23.321 92.3272 23.461C92.6632 23.545 92.9292 23.643 93.1392 23.783C93.3352 23.923 93.4892 24.119 93.5872 24.371C93.6712 24.623 93.7412 24.847 93.7692 25.043C93.7972 25.239 93.8112 25.533 93.8392 25.911C93.8392 25.953 93.8392 26.051 93.8532 26.191C93.8532 26.331 93.8672 26.429 93.8672 26.485C93.8672 26.541 93.8672 26.625 93.8812 26.751C93.8952 26.891 93.9092 26.989 93.9232 27.045C93.9232 27.115 93.9372 27.199 93.9652 27.311C93.9792 27.423 94.0072 27.521 94.0352 27.591C94.0632 27.661 94.0912 27.745 94.1332 27.829C94.1612 27.913 94.2032 27.997 94.2592 28.067C94.3012 28.137 94.3572 28.193 94.4132 28.249H92.9012C92.8312 28.165 92.7752 28.039 92.7332 27.899C92.6912 27.759 92.6632 27.605 92.6492 27.409C92.6212 27.213 92.6072 27.059 92.6072 26.947C92.5932 26.835 92.5792 26.653 92.5792 26.429C92.5652 26.205 92.5652 26.079 92.5652 26.051C92.5092 25.211 92.3412 24.637 92.0332 24.357C91.7252 24.077 91.1372 23.937 90.2412 23.937H87.6232V28.249H86.3072V18.281ZM87.6232 19.401V22.887H90.1012C90.4092 22.887 90.6612 22.887 90.8712 22.859C91.0812 22.845 91.3192 22.803 91.5712 22.733C91.8232 22.677 92.0192 22.579 92.1732 22.453C92.3272 22.341 92.4532 22.159 92.5652 21.935C92.6632 21.711 92.7192 21.445 92.7192 21.123C92.7192 20.451 92.5092 20.003 92.1032 19.765C91.6972 19.527 91.1512 19.401 90.4512 19.401H87.6232ZM102.947 21.207L101.659 21.221C101.519 19.863 100.693 19.191 99.1812 19.191C98.4672 19.191 97.9072 19.331 97.5152 19.625C97.1232 19.905 96.9272 20.311 96.9272 20.843C96.9272 21.025 96.9552 21.193 97.0112 21.333C97.0672 21.473 97.1652 21.585 97.3052 21.697C97.4452 21.809 97.5712 21.893 97.6832 21.977C97.8092 22.047 98.0052 22.117 98.2572 22.187C98.5232 22.271 98.7332 22.327 98.8872 22.355C99.0552 22.383 99.2932 22.439 99.6292 22.509C100.049 22.593 100.385 22.677 100.651 22.747C100.931 22.817 101.253 22.929 101.617 23.083C101.995 23.251 102.289 23.419 102.513 23.615C102.737 23.811 102.919 24.063 103.087 24.371C103.255 24.693 103.325 25.057 103.325 25.449C103.325 26.149 103.129 26.737 102.737 27.213C102.345 27.689 101.869 28.011 101.309 28.193C100.749 28.389 100.133 28.473 99.4472 28.473C98.2012 28.473 97.2072 28.179 96.4512 27.591C95.6952 27.003 95.3172 26.121 95.3172 24.959H96.5912C96.6192 25.813 96.9132 26.429 97.4452 26.821C97.9912 27.213 98.6912 27.409 99.5592 27.409C100.245 27.409 100.833 27.255 101.323 26.975C101.799 26.695 102.051 26.233 102.051 25.589C102.051 25.281 101.981 25.029 101.855 24.819C101.715 24.609 101.519 24.441 101.239 24.301C100.959 24.161 100.679 24.063 100.399 23.979C100.119 23.895 99.7412 23.797 99.2932 23.699C99.2232 23.685 99.1812 23.671 99.1532 23.657C98.1172 23.433 97.4452 23.237 97.1372 23.097C96.1572 22.677 95.6812 21.963 95.6812 20.927C95.6812 19.975 96.0312 19.275 96.7312 18.799C97.4312 18.323 98.2852 18.085 99.2792 18.085C100.371 18.085 101.253 18.351 101.897 18.869C102.555 19.401 102.905 20.171 102.947 21.207ZM111.871 18.281V19.429H106.285V22.551H111.507V23.657H106.285V27.101H111.941V28.249H104.969V18.281H111.871ZM120.584 21.207L119.296 21.221C119.156 19.863 118.33 19.191 116.818 19.191C116.104 19.191 115.544 19.331 115.152 19.625C114.76 19.905 114.564 20.311 114.564 20.843C114.564 21.025 114.592 21.193 114.648 21.333C114.704 21.473 114.802 21.585 114.942 21.697C115.082 21.809 115.208 21.893 115.32 21.977C115.446 22.047 115.642 22.117 115.894 22.187C116.16 22.271 116.37 22.327 116.524 22.355C116.692 22.383 116.93 22.439 117.266 22.509C117.686 22.593 118.022 22.677 118.288 22.747C118.568 22.817 118.89 22.929 119.254 23.083C119.632 23.251 119.926 23.419 120.15 23.615C120.374 23.811 120.556 24.063 120.724 24.371C120.892 24.693 120.962 25.057 120.962 25.449C120.962 26.149 120.766 26.737 120.374 27.213C119.982 27.689 119.506 28.011 118.946 28.193C118.386 28.389 117.77 28.473 117.084 28.473C115.838 28.473 114.844 28.179 114.088 27.591C113.332 27.003 112.954 26.121 112.954 24.959H114.228C114.256 25.813 114.55 26.429 115.082 26.821C115.628 27.213 116.328 27.409 117.196 27.409C117.882 27.409 118.47 27.255 118.96 26.975C119.436 26.695 119.688 26.233 119.688 25.589C119.688 25.281 119.618 25.029 119.492 24.819C119.352 24.609 119.156 24.441 118.876 24.301C118.596 24.161 118.316 24.063 118.036 23.979C117.756 23.895 117.378 23.797 116.93 23.699C116.86 23.685 116.818 23.671 116.79 23.657C115.754 23.433 115.082 23.237 114.774 23.097C113.794 22.677 113.318 21.963 113.318 20.927C113.318 19.975 113.668 19.275 114.368 18.799C115.068 18.323 115.922 18.085 116.916 18.085C118.008 18.085 118.89 18.351 119.534 18.869C120.192 19.401 120.542 20.171 120.584 21.207Z" fill="#327383"></path>
  <path d="M135.5 31.2491L148.5 18.249M148.5 18.249V30.7291M148.5 18.249H136.02" stroke="#327383" stroke-width="1.5" stroke-linecap="round" stroke-linejoin="round"></path>
</svg>
