<svg width="30" height="30" viewBox="0 0 30 30" fill="none" xmlns="http://www.w3.org/2000/svg">
<circle cx="15" cy="15" r="15" fill="#09265B"/>
<circle cx="15" cy="15" r="14.5" stroke="white" stroke-opacity="0.06"/>
<path d="M14.3845 21.1797C14.342 21.1797 14.3 21.171 14.2611 21.1539C14.2223 21.1369 14.1873 21.1121 14.1585 21.0809L8.06661 14.4912C8.026 14.4473 7.99908 14.3924 7.98914 14.3334C7.9792 14.2744 7.98668 14.2138 8.01065 14.159C8.03463 14.1042 8.07406 14.0576 8.12413 14.0248C8.17419 13.9921 8.23272 13.9746 8.29255 13.9746H11.2249C11.2689 13.9746 11.3124 13.9841 11.3525 14.0023C11.3925 14.0206 11.4282 14.0472 11.4571 14.0805L13.493 16.4227C13.7131 15.9524 14.139 15.1693 14.8865 14.215C15.9914 12.8042 18.0468 10.7294 21.5632 8.85642C21.6312 8.82023 21.7102 8.81083 21.7848 8.83009C21.8593 8.84936 21.924 8.89587 21.9659 8.96046C22.0078 9.02504 22.024 9.103 22.0113 9.17894C21.9985 9.25488 21.9578 9.32328 21.897 9.37064C21.8836 9.38113 20.5278 10.4488 18.9674 12.4045C17.5314 14.2042 15.6224 17.1469 14.683 20.946C14.6665 21.0128 14.6282 21.0721 14.574 21.1144C14.5199 21.1568 14.4531 21.1799 14.3844 21.1799L14.3845 21.1797Z" fill="white"/>
</svg>
