<svg width="36" height="36" viewBox="0 0 36 36" fill="none" xmlns="http://www.w3.org/2000/svg">
<path d="M31.1349 16.6286C32.1892 15.8878 32.8872 14.6555 32.8872 13.2665C32.8872 10.9942 31.0495 9.15648 28.7772 9.15648C26.5049 9.15648 24.6672 10.9942 24.6672 13.2665C24.6672 14.6555 25.3581 15.8878 26.4195 16.6286C25.5148 16.942 24.6886 17.4264 23.9905 18.0532C23.0289 17.234 21.8963 16.6072 20.6569 16.2368C22.1599 15.3251 23.1713 13.6654 23.1713 11.7778C23.1713 8.90005 20.8421 6.5708 17.9644 6.5708C15.0867 6.5708 12.7574 8.90717 12.7574 11.7778C12.7574 13.6654 13.7618 15.3251 15.2719 16.2368C14.0467 16.6072 12.9284 17.2269 11.9739 18.0318C11.2758 17.4192 10.4638 16.942 9.57341 16.6357C10.6276 15.8949 11.3257 14.6626 11.3257 13.2736C11.3257 11.0014 9.48793 9.1636 7.21567 9.1636C4.94341 9.1636 3.10566 11.0014 3.10566 13.2736C3.10566 14.6626 3.7966 15.8949 4.85793 16.6357C2.03007 17.6116 0 20.297 0 23.4525V23.9226C0 23.9368 0.0142461 23.9511 0.0284923 23.9511H8.74001C8.69015 24.3429 8.66165 24.7489 8.66165 25.1549V25.6393C8.66165 27.7334 10.3569 29.4287 12.4511 29.4287H23.4919C25.5861 29.4287 27.2814 27.7334 27.2814 25.6393V25.1549C27.2814 24.7489 27.2529 24.3429 27.203 23.9511H35.9715C35.9858 23.9511 36 23.9368 36 23.9226V23.4525C35.9858 20.2898 33.9628 17.6044 31.1349 16.6286ZM25.8069 13.2594C25.8069 11.6211 27.1389 10.289 28.7772 10.289C30.4155 10.289 31.7475 11.6211 31.7475 13.2594C31.7475 14.8763 30.444 16.1941 28.8342 16.2297H28.7202C27.1033 16.2012 25.8069 14.8834 25.8069 13.2594ZM13.8829 11.7778C13.8829 9.534 15.7064 7.71049 17.9501 7.71049C20.1939 7.71049 22.0174 9.534 22.0174 11.7778C22.0174 13.9432 20.315 15.7168 18.1852 15.8379H17.7151C15.5853 15.7168 13.8829 13.9432 13.8829 11.7778ZM4.22398 13.2594C4.22398 11.6211 5.556 10.289 7.1943 10.289C8.83261 10.289 10.1646 11.6211 10.1646 13.2594C10.1646 14.8763 8.8611 16.1941 7.25129 16.2297H7.13732C5.5275 16.2012 4.22398 14.8834 4.22398 13.2594ZM8.93945 22.8043H1.15394C1.47448 19.7699 4.03878 17.3907 7.15156 17.3694H7.23704C8.71864 17.3765 10.072 17.925 11.1191 18.8154C10.0934 19.9266 9.33122 21.2942 8.93945 22.8043ZM26.1274 25.6393C26.1274 27.0995 24.9379 28.289 23.4776 28.289H12.4369C10.9767 28.289 9.7871 27.0995 9.7871 25.6393V25.1549C9.7871 20.7315 13.3201 17.1129 17.7151 16.9847C17.7934 16.9919 17.8789 16.9919 17.9573 16.9919C18.0356 16.9919 18.1211 16.9919 18.1994 16.9847C22.5944 17.1129 26.1274 20.7315 26.1274 25.1549V25.6393ZM26.9751 22.8043C26.5833 21.3013 25.8354 19.9551 24.8168 18.8439C25.871 17.9321 27.2386 17.3836 28.7345 17.3694H28.8199C31.9327 17.3907 34.497 19.7699 34.8176 22.8043H26.9751Z" fill="white"/>
</svg>
