<svg width="70" height="70" viewBox="0 0 70 70" fill="none" xmlns="http://www.w3.org/2000/svg">
<g filter="url(#filter0_d_20724_22)">
<rect x="10" y="3" width="50" height="50" rx="8" fill="#D721FB"/>
</g>
<path d="M48.1349 26.6286C49.1892 25.8878 49.8872 24.6555 49.8872 23.2665C49.8872 20.9942 48.0495 19.1565 45.7772 19.1565C43.5049 19.1565 41.6672 20.9942 41.6672 23.2665C41.6672 24.6555 42.3581 25.8878 43.4195 26.6286C42.5148 26.942 41.6886 27.4264 40.9905 28.0532C40.0289 27.234 38.8963 26.6072 37.6569 26.2368C39.1599 25.3251 40.1713 23.6654 40.1713 21.7778C40.1713 18.9 37.8421 16.5708 34.9644 16.5708C32.0867 16.5708 29.7574 18.9072 29.7574 21.7778C29.7574 23.6654 30.7618 25.3251 32.2719 26.2368C31.0467 26.6072 29.9284 27.2269 28.9739 28.0318C28.2758 27.4192 27.4638 26.942 26.5734 26.6357C27.6276 25.8949 28.3257 24.6626 28.3257 23.2736C28.3257 21.0014 26.4879 19.1636 24.2157 19.1636C21.9434 19.1636 20.1057 21.0014 20.1057 23.2736C20.1057 24.6626 20.7966 25.8949 21.8579 26.6357C19.0301 27.6116 17 30.297 17 33.4525V33.9226C17 33.9368 17.0142 33.9511 17.0285 33.9511H25.74C25.6901 34.3429 25.6617 34.7489 25.6617 35.1549V35.6393C25.6617 37.7334 27.3569 39.4287 29.4511 39.4287H40.4919C42.5861 39.4287 44.2814 37.7334 44.2814 35.6393V35.1549C44.2814 34.7489 44.2529 34.3429 44.203 33.9511H52.9715C52.9858 33.9511 53 33.9368 53 33.9226V33.4525C52.9858 30.2898 50.9628 27.6044 48.1349 26.6286ZM42.8069 23.2594C42.8069 21.6211 44.1389 20.289 45.7772 20.289C47.4155 20.289 48.7475 21.6211 48.7475 23.2594C48.7475 24.8763 47.444 26.1941 45.8342 26.2297H45.7202C44.1033 26.2012 42.8069 24.8834 42.8069 23.2594ZM30.8829 21.7778C30.8829 19.534 32.7064 17.7105 34.9501 17.7105C37.1939 17.7105 39.0174 19.534 39.0174 21.7778C39.0174 23.9432 37.315 25.7168 35.1852 25.8379H34.7151C32.5853 25.7168 30.8829 23.9432 30.8829 21.7778ZM21.224 23.2594C21.224 21.6211 22.556 20.289 24.1943 20.289C25.8326 20.289 27.1646 21.6211 27.1646 23.2594C27.1646 24.8763 25.8611 26.1941 24.2513 26.2297H24.1373C22.5275 26.2012 21.224 24.8834 21.224 23.2594ZM25.9395 32.8043H18.1539C18.4745 29.7699 21.0388 27.3907 24.1516 27.3694H24.237C25.7186 27.3765 27.072 27.925 28.1191 28.8154C27.0934 29.9266 26.3312 31.2942 25.9395 32.8043ZM43.1274 35.6393C43.1274 37.0995 41.9379 38.289 40.4776 38.289H29.4369C27.9767 38.289 26.7871 37.0995 26.7871 35.6393V35.1549C26.7871 30.7315 30.3201 27.1129 34.7151 26.9847C34.7934 26.9919 34.8789 26.9919 34.9573 26.9919C35.0356 26.9919 35.1211 26.9919 35.1994 26.9847C39.5944 27.1129 43.1274 30.7315 43.1274 35.1549V35.6393ZM43.9751 32.8043C43.5833 31.3013 42.8354 29.9551 41.8168 28.8439C42.871 27.9321 44.2386 27.3836 45.7345 27.3694H45.8199C48.9327 27.3907 51.497 29.7699 51.8176 32.8043H43.9751Z" fill="white"/>
<defs>
<filter id="filter0_d_20724_22" x="0" y="0" width="70" height="70" filterUnits="userSpaceOnUse" color-interpolation-filters="sRGB">
<feFlood flood-opacity="0" result="BackgroundImageFix"/>
<feColorMatrix in="SourceAlpha" type="matrix" values="0 0 0 0 0 0 0 0 0 0 0 0 0 0 0 0 0 0 127 0" result="hardAlpha"/>
<feOffset dy="7"/>
<feGaussianBlur stdDeviation="5"/>
<feComposite in2="hardAlpha" operator="out"/>
<feColorMatrix type="matrix" values="0 0 0 0 0.487342 0 0 0 0 0.25 0 0 0 0 1 0 0 0 0.3 0"/>
<feBlend mode="normal" in2="BackgroundImageFix" result="effect1_dropShadow_20724_22"/>
<feBlend mode="normal" in="SourceGraphic" in2="effect1_dropShadow_20724_22" result="shape"/>
</filter>
</defs>
</svg>
