<svg width="60" height="60" viewBox="0 0 60 60" fill="none" xmlns="http://www.w3.org/2000/svg">
<path d="M40.0372 57.983C36.1911 57.9714 33.5655 56.6068 31.7539 54.0791C28.6544 55.7547 24.3932 55.568 22.1728 52.748C14.5339 54.6508 10.8688 48.8541 9.23607 40.2702C7.61329 33.4975 11.4361 27.878 17.1944 27.2852C18.2939 24.3118 21.3638 22.6658 22.4339 19.6786C23.5694 15.6108 22.2239 11.3275 21.4349 7.42578C20.6983 3.93412 24.4789 0.944675 27.771 2.33801C36.4189 6.12856 34.4582 18.2303 34.28 22.4808C40.1817 21.8013 48.0394 23.0218 50.0533 27.3819C51.6871 30.5625 51.335 34.1986 49.2488 37.0125C51.1705 39.8091 51.0855 44.8697 48.0338 47.4641C50.1533 52.753 45.6638 58.5708 40.0372 57.9836V57.983Z" fill="white"/>
<path d="M31.375 49.3428C31.375 49.3428 34.0423 54.5767 39.5561 54.3973C45.07 54.2178 47.8944 50.9111 47.8944 50.9111C47.8944 50.9111 46.7011 57.9272 39.4606 57.9695C32.6528 58.0095 30.4117 52.7161 31.3756 49.3428H31.375Z" fill="#E2E2E2"/>
<path d="M32.3684 40.8706C32.3684 40.8706 35.0356 46.1046 40.5495 45.925C46.0634 45.7456 48.8879 42.4389 48.8879 42.4389C48.8879 42.4389 47.6946 49.4551 40.4539 49.4972C33.6461 49.5373 31.4051 44.244 32.369 40.8706H32.3684Z" fill="#E2E2E2"/>
<path d="M30.6683 30.9688C30.6683 30.9688 33.8917 36.2026 40.5549 36.0232C47.2183 35.8437 50.6311 32.5371 50.6311 32.5371C50.6311 32.5371 49.1894 39.5532 40.4388 39.5954C32.2122 39.6353 29.5033 34.3421 30.6683 30.9688Z" fill="#E2E2E2"/>
<path d="M29.7611 49.0176C29.7611 49.0176 24.0905 50.4971 19.2038 46.6865C19.2038 46.6865 18.935 52.5887 25.2893 54.2176C30.335 55.511 31.7111 54.0159 31.7111 54.0159L29.7611 49.0176Z" fill="#E2E2E2"/>
<path d="M11.5833 43.3696C11.5833 43.3696 14.0938 47.4585 16.2905 48.0813C18.4872 48.7041 19.2044 46.6869 19.2044 46.6869L20.5939 53.2319C20.5939 53.2319 12.2111 55.1146 11.5833 43.3696Z" fill="#E2E2E2"/>
<path d="M19.4421 55.1835C18.0832 55.1835 16.3749 54.9057 14.6282 53.9047C10.946 51.7946 8.46436 47.3274 7.25213 40.6285C6.42491 36.0591 7.07601 32.3435 9.18602 29.5857C12.0855 25.7974 16.6527 25.3658 16.8461 25.3491L17.1644 28.9474C17.1327 28.9502 13.9388 29.2891 12.0315 31.8119C10.5838 33.7269 10.1716 36.4774 10.8066 39.9857C11.7988 45.4674 13.7216 49.1858 16.3677 50.7385C18.7349 52.1274 20.9677 51.3869 21.0611 51.3547L22.2866 54.7524C22.2027 54.783 21.0738 55.1841 19.4421 55.1841V55.1835Z" fill="#FF9924"/>
<path d="M17.5899 38.3488C16.0472 36.5255 15.2011 34.3416 14.7822 32.0367C14.2983 29.5483 14.8627 27.1305 16.1967 24.861C16.41 24.5349 16.6944 24.0372 16.9206 23.7494C17.8994 22.3388 19.3739 21.1927 20.1999 19.805C20.2544 19.6789 20.3878 19.3994 20.445 19.2822L20.5027 19.0917C21.2922 16.446 20.5717 13.2238 20.0566 10.4894C19.9661 10.0655 19.5205 8.23328 19.4578 7.82883C18.8989 5.09328 20.2833 2.14549 22.7433 0.808276C24.4622 -0.176169 26.595 -0.211169 28.4355 0.432165C36.3699 3.0855 37.1783 14.2094 36.4127 21.1639C36.1461 22.7038 35.6161 24.1039 34.6688 25.4061C33.855 23.901 33.6478 22.4766 33.4233 21.0699C33.3227 20.3728 33.3217 19.6722 33.2955 18.9744C33.2345 17.7538 33.1494 16.0422 32.9856 14.851C32.6927 12.5882 32.2372 10.2622 31.2822 8.18328C31.1055 7.76605 30.8361 7.37883 30.6399 6.97439C30.3849 6.65105 30.1528 6.21383 29.8639 5.93383C28.8133 4.7155 27.3589 3.92383 25.7894 3.87716C23.8966 3.93883 22.7083 5.81717 23.2339 7.59661C23.7733 10.0399 24.2972 12.8377 24.4388 15.3328C24.495 16.3122 24.4567 17.3649 24.3517 18.3472C24.2767 18.7189 24.1944 19.2567 24.0961 19.6222C24.0344 19.8166 23.8528 20.3967 23.7877 20.5883C23.6927 20.8066 23.4539 21.3088 23.3522 21.526C22.2794 23.5288 20.4249 24.6672 19.4256 26.5838C18.9683 27.5811 18.9399 28.8028 18.78 30.0267C18.3389 32.8311 18.1127 35.4449 17.5883 38.3488H17.5899Z" fill="#FF9924"/>
<path d="M19.2037 46.6865C20.9382 48.7721 22.2503 50.9727 24.3876 52.2543C26.3771 53.366 28.5015 53.0871 30.7876 52.7115L31.9626 56.127C28.8337 57.7726 24.3304 57.6232 21.6471 55.0198C19.4021 52.9582 18.2471 49.631 19.2043 46.6865H19.2037Z" fill="#FF9924"/>
<path d="M34.65 20.4876C40.6939 19.9259 48.4544 20.5692 51.8278 26.417C53.4294 29.5637 53.5356 33.132 52.0222 36.3225C50.4889 39.4226 47.2806 41.277 44.085 42.0221C39.1422 43.1787 32.3817 42.2493 29.2105 37.9009C27.9211 36.0604 27.6912 33.6865 28.2312 31.5375C29.3005 26.7853 34.5811 25.1132 38.8289 26.1537C40.3289 26.5121 41.7672 27.0937 43.0083 28.1276C40.2661 28.9259 37.5762 29.1537 35.0428 29.922C33.9422 30.2809 33.0505 30.7143 32.4539 31.3364C31.8278 31.9709 31.5878 32.9781 31.5699 33.8765C31.5766 34.4053 31.6939 34.9064 31.9078 35.3848C32.0278 35.5553 32.1494 35.8398 32.2978 35.9882C33.0616 36.9971 34.2227 37.6181 35.3833 38.0771C40.6605 40.0915 49.805 38.3937 49.4617 31.4292C49.4333 30.227 49.1712 29.1097 48.6612 28.156C46.3861 24.3342 41.1211 23.8987 37.0639 23.937C36.4383 23.9531 35.7194 24.0004 35.1227 24.0693L34.6506 20.4881L34.65 20.4876Z" fill="#FF9924"/>
<path d="M40.2905 51.9352C37.3732 51.9352 34.625 51.0857 32.4855 49.4523C30.3832 47.8473 29.1976 45.6529 29.2327 43.4307C29.291 39.7379 31.5232 37.9568 32.8327 37.4868L34.0533 40.8863L34.1038 40.8668C33.9782 40.9218 32.8766 41.4607 32.8444 43.4879C32.8277 44.5513 33.4955 45.679 34.6771 46.5807C36.4516 47.9351 39.7572 48.9729 43.7144 47.824C46.3832 47.049 48.0621 45.6173 48.7033 43.569C49.3971 41.3529 48.6849 39.0441 47.9855 38.1818L50.7911 35.9062C52.2599 37.7168 53.1988 41.3007 52.151 44.6479C51.446 46.9001 49.5855 49.8812 44.7222 51.2929C43.2399 51.7235 41.7439 51.9346 40.2905 51.9346V51.9352Z" fill="#FF9924"/>
<path d="M40.0372 59.9997C35.39 59.9997 31.4667 58.0035 30.0527 54.7325C27.9717 49.9153 30.9217 46.0402 31.0484 45.8774L33.8984 48.0969L32.4734 46.9874L33.9083 48.0841C33.8361 48.1808 32.1511 50.4808 33.3689 53.2997C34.3528 55.5775 38.0889 56.8375 42.0572 56.2313C43.765 55.9702 45.2534 54.9263 46.1406 53.3669C47.0627 51.7458 47.2011 49.8524 46.5205 48.1719L49.8683 46.8158C50.9667 49.5263 50.7523 52.5652 49.2805 55.1525C47.8439 57.6786 45.41 59.373 42.6028 59.8019C41.731 59.9353 40.8722 59.9997 40.0372 59.9997Z" fill="#FF9924"/>
</svg>
