<svg width="40" height="40" viewBox="0 0 40 40" fill="none" xmlns="http://www.w3.org/2000/svg">
<path d="M20.0001 32.7437C19.8438 32.7437 19.6876 32.6875 19.5626 32.5687L18.1688 31.2187L16.2876 31.6937C15.9626 31.775 15.6251 31.5812 15.5313 31.2562L15.0063 29.3875L13.1376 28.8625C12.8126 28.7687 12.6188 28.4375 12.7001 28.1062L13.1751 26.225L11.8251 24.8312C11.711 24.7155 11.647 24.5594 11.647 24.3969C11.647 24.2343 11.711 24.0783 11.8251 23.9625L13.1751 22.5687L12.7001 20.6875C12.6188 20.3562 12.8126 20.025 13.1376 19.9312L15.0063 19.4062L15.5313 17.5375C15.6251 17.2125 15.9563 17.0187 16.2876 17.1L18.1688 17.575L19.5626 16.225C19.6783 16.1109 19.8344 16.0469 19.997 16.0469C20.1595 16.0469 20.3156 16.1109 20.4313 16.225L21.8251 17.575L23.7063 17.1C24.0376 17.0187 24.3688 17.2125 24.4626 17.5375L24.9876 19.4062L26.8563 19.9312C27.1813 20.025 27.3751 20.3562 27.2938 20.6875L26.8188 22.5687L28.1688 23.9625C28.283 24.0783 28.3469 24.2343 28.3469 24.3969C28.3469 24.5594 28.283 24.7155 28.1688 24.8312L26.8188 26.225L27.2938 28.1062C27.3751 28.4375 27.1813 28.7687 26.8563 28.8625L24.9876 29.3875L24.4626 31.2562C24.3688 31.5812 24.0313 31.775 23.7063 31.6937L21.8251 31.2187L20.4313 32.5687C20.3126 32.6875 20.1563 32.7437 20.0001 32.7437ZM18.3563 29.9C18.5188 29.9 18.6751 29.9625 18.7938 30.075L20.0001 31.25L21.2063 30.075C21.3626 29.925 21.5876 29.8625 21.7938 29.9187L23.4251 30.3312L23.8813 28.7125C23.9376 28.5 24.1063 28.3375 24.3126 28.2812L25.9313 27.825L25.5188 26.1937C25.4626 25.9812 25.5251 25.7625 25.6751 25.6062L26.8501 24.4L25.6751 23.1937C25.6008 23.1174 25.5475 23.0233 25.5201 22.9204C25.4927 22.8175 25.4923 22.7093 25.5188 22.6062L25.9313 20.975L24.3126 20.5187C24.2093 20.4907 24.1152 20.4362 24.0395 20.3605C23.9639 20.2849 23.9093 20.1907 23.8813 20.0875L23.4251 18.4687L21.7938 18.8812C21.6907 18.9078 21.5825 18.9073 21.4796 18.88C21.3767 18.8526 21.2826 18.7992 21.2063 18.725L20.0001 17.5562L18.7938 18.7312C18.6376 18.8812 18.4126 18.9437 18.2063 18.8875L16.5751 18.475L16.1188 20.0937C16.0626 20.3 15.8938 20.4687 15.6876 20.525L14.0688 20.9812L14.4813 22.6125C14.5376 22.825 14.4751 23.0437 14.3251 23.2L13.1501 24.4062L14.3251 25.6125C14.4751 25.7687 14.5376 25.9937 14.4813 26.2L14.0688 27.8312L15.6876 28.2875C15.9001 28.3437 16.0626 28.5125 16.1188 28.7187L16.5751 30.3375L18.2063 29.925C18.2563 29.9062 18.3063 29.9 18.3563 29.9Z" fill="#FF3F1D"/>
<path d="M16.2253 36.8249H16.1753C16.0495 36.8155 15.9294 36.768 15.8312 36.6887C15.7329 36.6095 15.6611 36.5022 15.6253 36.3812L14.7878 33.6124L12.5003 34.4874C12.3865 34.5311 12.2623 34.5401 12.1433 34.5135C12.0243 34.4868 11.9159 34.4255 11.8316 34.3374C11.6566 34.1562 11.6066 33.8937 11.7003 33.6624L13.9003 28.3499C13.9319 28.274 13.9782 28.205 14.0364 28.147C14.0947 28.0889 14.1638 28.0429 14.2398 28.0116C14.3158 27.9802 14.3973 27.9642 14.4795 27.9643C14.5618 27.9645 14.6432 27.9808 14.7191 28.0124C14.795 28.044 14.864 28.0902 14.922 28.1485C14.9801 28.2067 15.0261 28.2759 15.0574 28.3519C15.0887 28.4279 15.1048 28.5094 15.1047 28.5916C15.1045 28.6738 15.0882 28.7552 15.0566 28.8312L13.4128 32.7999L14.9691 32.2062C15.1316 32.1437 15.3128 32.1499 15.4691 32.2312C15.6253 32.3062 15.7441 32.4437 15.7941 32.6124L16.3628 34.4874L18.2066 30.6562C18.3566 30.3437 18.7316 30.2124 19.0378 30.3624C19.3503 30.5124 19.4816 30.8874 19.3316 31.1937L16.7878 36.4687C16.6816 36.6874 16.4628 36.8249 16.2253 36.8249ZM23.7753 36.8249C23.5378 36.8249 23.3191 36.6874 23.2128 36.4687L20.6691 31.1937C20.6332 31.1199 20.6123 31.0397 20.6076 30.9578C20.6029 30.8759 20.6146 30.7939 20.642 30.7165C20.6693 30.6392 20.7117 30.568 20.7668 30.5072C20.8219 30.4464 20.8885 30.3972 20.9628 30.3624C21.0366 30.3265 21.1168 30.3056 21.1987 30.3009C21.2806 30.2963 21.3626 30.3079 21.44 30.3353C21.5173 30.3626 21.5884 30.4051 21.6492 30.4601C21.71 30.5152 21.7593 30.5819 21.7941 30.6562L23.6378 34.4874L24.2066 32.6124C24.232 32.5301 24.2739 32.4539 24.3298 32.3884C24.3856 32.3229 24.4543 32.2695 24.5315 32.2315C24.6088 32.1935 24.693 32.1716 24.7789 32.1672C24.8649 32.1629 24.9509 32.1761 25.0316 32.2062L26.5878 32.7999L24.9441 28.8312C24.8128 28.5124 24.9628 28.1437 25.2816 28.0124C25.6003 27.8812 25.9691 28.0312 26.1003 28.3499L28.3003 33.6624C28.3461 33.7752 28.358 33.8989 28.3347 34.0185C28.3114 34.138 28.2539 34.2481 28.1691 34.3355C28.0843 34.4229 27.976 34.4838 27.8573 34.5108C27.7385 34.5378 27.6145 34.5296 27.5003 34.4874L25.2128 33.6124L24.3753 36.3812C24.3003 36.6249 24.0816 36.8062 23.8253 36.8249H23.7753ZM20.0003 28.5249C17.7253 28.5249 15.8753 26.6749 15.8753 24.3999C15.8753 22.1249 17.7253 20.2749 20.0003 20.2749C22.2753 20.2749 24.1253 22.1249 24.1253 24.3999C24.1253 26.6749 22.2753 28.5249 20.0003 28.5249ZM20.0003 21.5249C19.6227 21.5249 19.2489 21.5994 18.9 21.7439C18.5512 21.8884 18.2342 22.1003 17.9673 22.3673C17.7003 22.6343 17.4885 22.9513 17.3441 23.3002C17.1996 23.649 17.1253 24.0229 17.1253 24.4005C17.1254 24.7781 17.1998 25.152 17.3443 25.5008C17.4889 25.8497 17.7007 26.1666 17.9677 26.4336C18.2347 26.7006 18.5517 26.9123 18.9006 27.0568C19.2495 27.2012 19.6234 27.2756 20.001 27.2755C20.7635 27.2754 21.4949 26.9724 22.034 26.4331C22.5732 25.8939 22.876 25.1625 22.876 24.3999C22.8759 23.6373 22.5729 22.906 22.0336 22.3668C21.4943 21.8277 20.7629 21.5248 20.0003 21.5249Z" fill="#FF3F1D"/>
<path d="M35.4939 30.1874H28.7127C28.3689 30.1874 28.0877 29.9062 28.0877 29.5624C28.0877 29.2187 28.3689 28.9374 28.7127 28.9374H35.4877C36.1752 28.9374 36.7314 28.3812 36.7314 27.6937V5.6749C36.7314 4.9874 36.1752 4.43115 35.4877 4.43115H4.50645C3.81895 4.43115 3.2627 4.9874 3.2627 5.6749V27.6937C3.2627 28.3812 3.81895 28.9374 4.50645 28.9374H10.6564C11.0002 28.9374 11.2814 29.2187 11.2814 29.5624C11.2814 29.9062 11.0002 30.1874 10.6564 30.1874H4.50645C3.13145 30.1874 2.0127 29.0687 2.0127 27.6937V5.6749C2.0127 4.2999 3.13145 3.18115 4.50645 3.18115H35.4939C36.8689 3.18115 37.9877 4.2999 37.9877 5.6749V27.6937C37.9877 29.0687 36.8689 30.1874 35.4939 30.1874Z" fill="#FF3F1D"/>
<path d="M33.5002 27.8438H28.9189C28.5752 27.8438 28.2939 27.5625 28.2939 27.2188C28.2939 26.875 28.5752 26.5938 28.9189 26.5938H33.5002C34.0377 26.5938 34.4689 26.1875 34.4689 25.6937V7.7125C34.4689 7.2125 34.0314 6.8125 33.5002 6.8125H7.0752C6.5377 6.8125 6.10645 7.21875 6.10645 7.7125V25.6875C6.10645 26.1875 6.54395 26.5875 7.0752 26.5875H10.7002C11.0439 26.5875 11.3252 26.8687 11.3252 27.2125C11.3252 27.5562 11.0439 27.8375 10.7002 27.8375H7.0752C5.8502 27.8375 4.85645 26.875 4.85645 25.6875V7.7125C4.85645 6.525 5.8502 5.5625 7.0752 5.5625H33.5002C34.7252 5.5625 35.7189 6.525 35.7189 7.7125V25.6875C35.7189 26.8812 34.7252 27.8438 33.5002 27.8438Z" fill="#FF3F1D"/>
<path d="M21.6379 10.375H9.36914C9.02539 10.375 8.74414 10.0938 8.74414 9.75C8.74414 9.40625 9.02539 9.125 9.36914 9.125H21.6316C21.9754 9.125 22.2566 9.40625 22.2566 9.75C22.2566 10.0938 21.9816 10.375 21.6379 10.375ZM31.2004 10.375H24.5879C24.2441 10.375 23.9629 10.0938 23.9629 9.75C23.9629 9.40625 24.2441 9.125 24.5879 9.125H31.2004C31.5441 9.125 31.8254 9.40625 31.8254 9.75C31.8254 10.0938 31.5441 10.375 31.2004 10.375ZM31.2004 14.1687H18.9379C18.5941 14.1687 18.3129 13.8875 18.3129 13.5437C18.3129 13.2 18.5941 12.9187 18.9379 12.9187H31.2004C31.5441 12.9187 31.8254 13.2 31.8254 13.5437C31.8254 13.8875 31.5441 14.1687 31.2004 14.1687ZM15.9879 14.1687H9.36914C9.02539 14.1687 8.74414 13.8875 8.74414 13.5437C8.74414 13.2 9.02539 12.9187 9.36914 12.9187H15.9816C16.3254 12.9187 16.6066 13.2 16.6066 13.5437C16.6066 13.8875 16.3316 14.1687 15.9879 14.1687Z" fill="#FF3F1D"/>
</svg>
