<svg width="58" height="58" viewBox="0 0 58 58" fill="none" xmlns="http://www.w3.org/2000/svg">
<g clip-path="url(#clip0_20453_109)">
<path d="M14.8429 27.7168C14.8315 27.963 14.7228 28.1945 14.5407 28.3604C14.3586 28.5264 14.118 28.6132 13.8719 28.6018C13.6258 28.5904 13.3943 28.4817 13.2283 28.2996C13.0624 28.1174 12.9755 27.8769 12.9869 27.6308C12.9918 27.5083 13.0208 27.388 13.0723 27.2769C13.1238 27.1657 13.1968 27.0658 13.2871 26.983C13.3774 26.9001 13.4832 26.8359 13.5984 26.7941C13.7136 26.7524 13.8359 26.7338 13.9583 26.7394C14.0807 26.7451 14.2008 26.775 14.3116 26.8272C14.4224 26.8795 14.5218 26.9532 14.604 27.044C14.6862 27.1349 14.7497 27.2411 14.7907 27.3566C14.8317 27.472 14.8495 27.5945 14.8429 27.7168ZM53.2199 42.0869C52.9746 42.643 52.5286 43.0699 51.9642 43.2886L49.1765 44.3694C48.9155 44.4709 48.6379 44.5229 48.3579 44.523C47.4471 44.523 46.5857 43.9713 46.2371 43.0725L46.0394 42.5624L43.9749 43.4237C44.0628 44.0636 43.9484 44.7222 43.6318 45.2979C43.2418 46.0071 42.5988 46.5232 41.8191 46.7538C42.0331 47.5013 41.9655 48.3274 41.5653 49.0547C40.9671 50.1427 39.7977 50.7214 38.633 50.6236C38.6429 51.1498 38.5144 51.6695 38.2604 52.1305C37.8672 52.8456 37.2166 53.3644 36.4282 53.5913C35.9944 53.7173 35.538 53.745 35.0922 53.6725C35.0829 54.1626 34.9544 54.643 34.7178 55.0723C34.3244 55.7875 33.6459 56.3247 32.8564 56.546C32.5884 56.6215 32.3113 56.66 32.0328 56.6603C31.5161 56.6605 31.0084 56.5247 30.5607 56.2667L29.8871 55.8798C29.4945 56.3926 28.9522 56.7701 28.3193 56.9619C28.0239 57.0518 27.7169 57.0976 27.4081 57.0979C26.9035 57.0979 26.4044 56.9741 25.9482 56.7302C25.3265 56.3985 24.836 55.8652 24.5574 55.2179C23.7387 55.5283 22.7986 55.4935 21.9813 55.0564C21.426 54.759 20.9744 54.2998 20.6862 53.7397C19.816 54.166 18.7624 54.1833 17.8472 53.6938C17.1159 53.3027 16.58 52.648 16.3383 51.8504C16.2163 51.4509 16.1758 51.031 16.2192 50.6155C15.7328 50.6049 15.2558 50.4798 14.8267 50.2504C14.0955 49.8592 13.5596 49.2046 13.318 48.4069C13.0761 47.6091 13.1585 46.7671 13.5495 46.0359L14.2729 44.6832C14.1157 44.2891 14.0349 43.8664 13.958 43.4529C13.8259 42.7433 13.7184 42.27 13.4368 42.1607C13.3062 42.1099 13.0021 41.9836 11.9209 41.5023L11.6691 42.0717C11.2942 42.9196 10.4604 43.425 9.58806 43.425C9.28163 43.425 8.97067 43.3627 8.67297 43.2312L5.93813 42.0225C5.38453 41.7778 4.9587 41.3309 4.73939 40.7639C4.52008 40.1969 4.53401 39.5799 4.7787 39.0263L11.0577 24.8201C11.3023 24.2665 11.7492 23.8408 12.3162 23.6214C12.883 23.402 13.5 23.4159 14.0538 23.6607L16.7887 24.8694C17.9343 25.3757 18.4545 26.7197 17.9481 27.8655L17.5259 28.8207L19.1965 29.5913C19.2184 29.6015 19.2401 29.6126 19.2613 29.6244C20.1979 30.1515 21.1988 29.9168 22.466 29.6197C24.1617 29.2222 26.245 28.7344 28.6823 30.139C32.051 28.088 34.6376 29.1424 36.5496 29.9239C37.9315 30.4887 38.7524 30.7878 39.5555 30.3701L41.0106 29.5912L40.6226 28.5904C40.1699 27.4223 40.7518 26.1038 41.9194 25.6511L44.7074 24.5703C45.2718 24.3515 45.8889 24.3663 46.4449 24.6116C47.001 24.8571 47.4278 25.3029 47.6466 25.8672L53.2608 40.349C53.48 40.9137 53.4654 41.5307 53.2199 42.0869ZM10.0117 41.339L16.2906 27.1329C16.3566 26.9834 16.3231 26.849 16.2974 26.782C16.2714 26.7152 16.2057 26.5932 16.0563 26.5272L13.3214 25.3185C13.2643 25.293 13.2026 25.2799 13.1401 25.2799C13.0682 25.2799 13.0085 25.297 12.9706 25.3118C12.9038 25.3377 12.7818 25.4033 12.7158 25.5528L6.43691 39.759C6.37075 39.9085 6.40429 40.043 6.43011 40.1098C6.45594 40.1767 6.52165 40.2987 6.67118 40.3647L9.40613 41.5734C9.63359 41.6741 9.91102 41.5666 10.0117 41.339ZM17.0775 48.5429L18.8515 45.473C19.1173 44.8547 18.8669 44.1299 18.2714 43.8121C17.6379 43.4739 16.8473 43.7131 16.5092 44.3455L15.1479 46.8907C14.985 47.1951 14.9512 47.5468 15.0525 47.8812C15.1539 48.2157 15.3773 48.4895 15.6817 48.6522C16.129 48.8914 16.6748 48.8442 17.0775 48.5429ZM20.4686 51.5527L22.4385 47.7378C22.5384 47.188 22.2694 46.6158 21.7752 46.3519C21.324 46.111 20.7741 46.1602 20.3706 46.4669L18.1687 50.3341C18.0058 50.6386 17.972 50.9902 18.0733 51.3247C18.1747 51.6591 18.3981 51.9329 18.7024 52.0956C19.3348 52.4339 20.1268 52.1902 20.4686 51.5527ZM24.4774 53.1069L26.2196 49.7588C26.3188 49.2092 26.0499 48.6377 25.556 48.3741C25.064 48.1115 24.4439 48.2014 24.0426 48.5816L22.1522 52.2426C22.1276 52.7429 22.3911 53.2201 22.8362 53.4582C23.3953 53.7571 24.0912 53.6047 24.4774 53.1069ZM28.5648 54.598L29.8699 52.1573C30.1048 51.7182 30.0639 51.1725 29.7657 50.767C29.6524 50.6126 29.5057 50.4858 29.3365 50.3961C28.8444 50.1332 28.2238 50.2236 27.8225 50.6049L26.1221 53.8728C26.0812 54.3837 26.3494 54.8891 26.8033 55.1319C27.4362 55.4704 28.2263 55.2307 28.5648 54.598ZM32.6385 52.51C32.5937 52.4849 31.7959 52.0184 31.7959 52.0184C31.7442 52.3615 31.6362 52.6981 31.4682 53.0121L30.7787 54.3015L31.4636 54.6949C31.7345 54.8504 32.0555 54.888 32.3673 54.8007C32.6914 54.7098 32.9693 54.4904 33.1297 54.1988C33.4574 53.6031 33.2371 52.8456 32.6385 52.51ZM30.6994 46.4738C30.5951 46.4158 30.5033 46.3377 30.4293 46.2441C30.3553 46.1504 30.3005 46.0431 30.2681 45.9282C30.2356 45.8134 30.2262 45.6932 30.2404 45.5747C30.2545 45.4562 30.2919 45.3417 30.3504 45.2376C30.409 45.1336 30.4875 45.0422 30.5814 44.9686C30.6754 44.895 30.783 44.8407 30.898 44.8088C31.013 44.7769 31.1331 44.768 31.2516 44.7827C31.37 44.7973 31.4844 44.8353 31.5882 44.8942L38.297 48.6692C38.8948 48.9979 39.6487 48.7789 39.9773 48.1811C40.303 47.5891 40.0808 46.8332 39.4817 46.4959C37.9089 45.6151 36.1265 44.6167 34.3729 43.6128C34.1665 43.4923 34.0162 43.2951 33.9545 43.0642C33.8929 42.8334 33.9249 42.5875 34.0436 42.3801C34.1623 42.1727 34.3581 42.0206 34.5884 41.9569C34.8188 41.8932 35.0649 41.923 35.2733 42.0399C37.0202 43.0401 38.7994 44.0365 40.3691 44.9157L40.3694 44.9159C40.6498 45.0727 40.9781 45.1093 41.2939 45.019C41.6174 44.9264 41.8836 44.7153 42.0436 44.4245C42.2365 44.0738 42.2447 43.6617 42.0661 43.2938C41.9524 43.0595 41.7703 42.8653 41.5438 42.7368L34.1293 38.5107C32.9215 37.8226 31.3745 38.449 29.5828 39.1742C26.8522 40.2795 23.4546 41.655 20.5305 37.8922C20.3222 37.6244 20.2428 37.2933 20.3066 36.9599C20.3705 36.6259 20.5677 36.3471 20.8617 36.1752C22.9439 34.9599 24.7014 33.6345 26.0858 32.2354C26.3899 31.9278 26.7061 31.6323 27.0337 31.3498C25.54 30.7622 24.2399 31.0659 22.8798 31.3847C21.4373 31.7228 19.9462 32.0725 18.4061 31.2228L16.7933 30.4788L12.6538 39.8445C13.6166 40.2731 13.9728 40.4245 14.0929 40.4711C15.1096 40.8657 15.4508 41.7746 15.6344 42.5928C16.5809 41.7866 17.9632 41.5931 19.1248 42.213C19.9961 42.678 20.5603 43.5068 20.7221 44.4187C21.3769 44.3245 22.0447 44.4416 22.6284 44.7529C23.3332 45.1278 23.8663 45.7601 24.1168 46.518C24.8857 46.3064 25.7064 46.3984 26.4093 46.7751C27.114 47.15 27.6471 47.7821 27.8977 48.54C28.6667 48.3284 29.4877 48.4205 30.1906 48.7974C30.5442 48.9854 30.8576 49.2407 31.1131 49.5491L34.9955 51.7467C35.2788 51.9043 35.6097 51.9408 35.927 51.8494C36.2485 51.7568 36.5132 51.5463 36.6725 51.2568C36.9983 50.6647 36.7759 49.9088 36.177 49.5717M45.3841 40.8719L41.671 31.2939L40.4017 31.9733C38.8048 32.8037 37.3099 32.1928 35.8641 31.6018C33.9726 30.8286 32.0164 30.0288 29.2061 31.9566C28.6024 32.3691 27.9865 32.8914 27.3743 33.5101C26.0315 34.867 24.3765 36.1527 22.4473 37.3381C24.3947 39.3188 26.4972 38.4678 28.9027 37.4939C30.9446 36.6672 33.0561 35.8125 35.0268 36.9358L42.4415 41.1619C42.7289 41.3253 42.9883 41.5336 43.2099 41.7788L45.3841 40.8719ZM51.5713 41.0045L45.9571 26.5226C45.8981 26.3702 45.7793 26.2989 45.7137 26.27C45.6542 26.2438 45.59 26.2302 45.5251 26.2299C45.4696 26.23 45.4147 26.2403 45.3631 26.2605L42.5751 27.3412C42.343 27.4312 42.223 27.7034 42.313 27.9356L47.9273 42.4172C48.0171 42.6492 48.289 42.7692 48.5215 42.6794L51.3092 41.5986C51.4617 41.5394 51.5329 41.4207 51.5618 41.3551C51.5906 41.2896 51.6304 41.1569 51.5713 41.0045ZM44.6609 27.6568C44.1478 27.6568 43.7319 28.0728 43.7319 28.5858C43.7319 28.8322 43.8298 29.0685 44.004 29.2427C44.1783 29.417 44.4146 29.5148 44.6609 29.5148C44.9073 29.5148 45.1436 29.417 45.3179 29.2427C45.4921 29.0685 45.59 28.8322 45.59 28.5858C45.59 28.3394 45.4921 28.1031 45.3179 27.9289C45.1436 27.7547 44.9073 27.6568 44.6609 27.6568ZM45.8131 21.7762C45.8266 21.9026 45.8133 22.0304 45.7742 22.1513C45.7351 22.2723 45.6709 22.3837 45.586 22.4782C45.501 22.5728 45.3971 22.6484 45.281 22.7002C45.1649 22.752 45.0392 22.7788 44.9121 22.7789H36.2389C36.2553 22.886 36.2696 22.9936 36.2813 23.1022C36.2948 23.2286 36.2815 23.3565 36.2424 23.4774C36.2032 23.5984 36.1391 23.7097 36.0541 23.8043C35.9692 23.8989 35.8653 23.9745 35.7492 24.0263C35.6331 24.0781 35.5074 24.1049 35.3803 24.105H22.6199C22.4928 24.105 22.3671 24.0782 22.251 24.0264C22.1348 23.9747 22.0309 23.899 21.9459 23.8045C21.861 23.7099 21.7968 23.5985 21.7577 23.4776C21.7186 23.3566 21.7054 23.2288 21.7189 23.1023C21.7306 22.9937 21.7449 22.886 21.7611 22.7789H13.0881C12.9609 22.779 12.8352 22.7522 12.719 22.7005C12.6029 22.6487 12.4989 22.5731 12.4139 22.4785C12.329 22.3839 12.2648 22.2725 12.2257 22.1515C12.1866 22.0305 12.1735 21.9026 12.1871 21.7762C12.4284 19.5215 13.8298 17.6571 15.7618 16.7442C15.1801 16.0986 14.8254 15.2447 14.8254 14.3093C14.8254 12.3013 16.459 10.6678 18.4669 10.6678C20.4748 10.6678 22.1085 12.3014 22.1085 14.3093C22.1085 15.2481 21.7513 16.105 21.1659 16.7513C22.1616 17.225 23.0274 17.9535 23.6623 18.8671C24.3434 18.1435 25.1649 17.5663 26.0765 17.1707C25.3192 16.4184 24.8494 15.3769 24.8494 14.2277C24.8494 11.9389 26.7114 10.0768 29.0002 10.0768C31.2889 10.0768 33.151 11.9389 33.151 14.2277C33.151 15.377 32.6812 16.4184 31.9238 17.1708C32.8354 17.5664 33.6568 18.1436 34.338 18.8672C34.9728 17.9536 35.8386 17.2251 36.8345 16.7514C36.249 16.1051 35.8919 15.2482 35.8919 14.3094C35.8919 12.3014 37.5255 10.6679 39.5334 10.6679C41.5413 10.6679 43.1749 12.3015 43.1749 14.3094C43.1749 15.2448 42.8202 16.0986 42.2385 16.7443C44.1703 17.657 45.572 19.5214 45.8131 21.7762ZM39.5333 16.1385C40.5418 16.1385 41.3623 15.318 41.3623 14.3094C41.3623 13.3009 40.5418 12.4804 39.5333 12.4804C38.5247 12.4804 37.7042 13.3009 37.7042 14.3094C37.7042 15.318 38.5247 16.1385 39.5333 16.1385ZM29 16.5658C30.2894 16.5658 31.3384 15.5169 31.3384 14.2275C31.3384 12.9382 30.2894 11.8892 29 11.8892C27.7108 11.8892 26.6618 12.9382 26.6618 14.2275C26.6619 15.5169 27.7109 16.5658 29 16.5658ZM18.4669 16.1385C19.4755 16.1385 20.296 15.318 20.296 14.3094C20.296 13.3009 19.4755 12.4804 18.4669 12.4804C17.4584 12.4804 16.6379 13.3009 16.6379 14.3094C16.6379 15.318 17.4584 16.1385 18.4669 16.1385ZM22.282 20.9663C22.3532 20.8008 22.4306 20.638 22.5139 20.4782C21.7653 18.9514 20.1881 17.9509 18.4669 17.9509C16.5106 17.9509 14.8292 19.1925 14.2132 20.9663H22.282ZM34.2774 22.2924C33.5911 20.003 31.4755 18.3783 29 18.3783C26.5245 18.3783 24.4089 20.003 23.7227 22.2924H34.2774ZM43.787 20.9663C43.171 19.1925 41.4896 17.9509 39.5333 17.9509C37.8121 17.9509 36.235 18.9514 35.4863 20.4783C35.5696 20.638 35.6469 20.8008 35.7182 20.9663H43.787ZM51.073 24.7946C51.073 25.035 51.1685 25.2655 51.3384 25.4355C51.5084 25.6054 51.7389 25.7009 51.9793 25.7009C52.2196 25.7009 52.4501 25.6054 52.6201 25.4355C52.79 25.2655 52.8855 25.035 52.8855 24.7946C52.8855 20.5708 51.7673 16.4193 49.6519 12.7888C49.5299 12.583 49.3316 12.4338 49.1001 12.3736C48.8686 12.3135 48.6227 12.3473 48.416 12.4678C48.2094 12.5882 48.0587 12.7854 47.9968 13.0165C47.935 13.2475 47.967 13.4937 48.0859 13.7012C50.0401 17.055 51.073 20.8911 51.073 24.7946ZM6.02094 25.7009C6.26129 25.7009 6.4918 25.6054 6.66176 25.4355C6.83171 25.2655 6.92719 25.035 6.92719 24.7946C6.92719 19.951 8.4967 15.4676 11.1521 11.8237L11.2172 13.635C11.2214 13.7539 11.2491 13.8708 11.2985 13.9791C11.348 14.0873 11.4183 14.1848 11.5054 14.2659C11.5925 14.3469 11.6948 14.4101 11.8063 14.4516C11.9178 14.4932 12.0364 14.5124 12.1553 14.5081C12.2743 14.5039 12.3912 14.4762 12.4995 14.4268C12.6077 14.3773 12.7052 14.307 12.7862 14.2199C12.8673 14.1328 12.9305 14.0305 12.972 13.919C13.0136 13.8075 13.0328 13.6889 13.0285 13.5699L12.8903 9.72235C16.9209 5.41709 22.6512 2.72168 29 2.72168C33.6724 2.72168 38.2286 4.2128 41.9852 6.94616L40.1596 7.01175C39.9194 7.02038 39.6925 7.12407 39.5287 7.30001C39.365 7.47596 39.2778 7.70975 39.2864 7.94995C39.2951 8.19015 39.3988 8.41709 39.5747 8.58084C39.7506 8.74459 39.9844 8.83174 40.2246 8.82312L44.4611 8.67098C44.5985 8.66607 44.733 8.62995 44.8544 8.56535C44.9758 8.50076 45.0809 8.40939 45.1618 8.29816C45.2426 8.18693 45.2971 8.05876 45.3211 7.92336C45.3451 7.78796 45.3379 7.64888 45.3002 7.51665L44.137 3.44C44.0711 3.20885 43.916 3.01337 43.7059 2.89656C43.4959 2.77975 43.248 2.75117 43.0168 2.81712C42.7857 2.88307 42.5902 3.03813 42.4734 3.24821C42.3566 3.45828 42.328 3.70616 42.394 3.9373L42.7789 5.28637C38.7668 2.45252 33.9436 0.90918 29 0.90918C22.094 0.90918 15.8642 3.85642 11.4993 8.55793L7.64528 9.65755C7.41415 9.72351 7.21869 9.87859 7.1019 10.0887C6.98511 10.2987 6.95656 10.5466 7.02252 10.7777C7.08848 11.0089 7.24356 11.2043 7.45363 11.3211C7.66371 11.4379 7.91157 11.4665 8.1427 11.4005L9.50264 11.0125C6.74016 14.9089 5.11469 19.6654 5.11469 24.7946C5.11469 25.035 5.21017 25.2655 5.38013 25.4355C5.55008 25.6054 5.78059 25.7009 6.02094 25.7009Z" fill="white"/>
</g>
<defs>
<clipPath id="clip0_20453_109">
<rect width="58" height="58" fill="white" transform="translate(0 0.00341797)"/>
</clipPath>
</defs>
</svg>
