<svg width="58" height="58" viewBox="0 0 58 58" fill="none" xmlns="http://www.w3.org/2000/svg">
<path d="M14.8429 27.7134C14.8315 27.9595 14.7228 28.1911 14.5407 28.357C14.3586 28.523 14.118 28.6098 13.8719 28.5984C13.6258 28.587 13.3943 28.4782 13.2283 28.2961C13.0624 28.114 12.9755 27.8735 12.9869 27.6273C12.9918 27.5049 13.0208 27.3846 13.0723 27.2734C13.1238 27.1623 13.1968 27.0624 13.2871 26.9795C13.3774 26.8967 13.4832 26.8325 13.5984 26.7907C13.7136 26.7489 13.8359 26.7303 13.9583 26.736C14.0807 26.7417 14.2008 26.7715 14.3116 26.8238C14.4224 26.8761 14.5218 26.9498 14.604 27.0406C14.6862 27.1315 14.7497 27.2377 14.7907 27.3532C14.8317 27.4686 14.8495 27.5911 14.8429 27.7134ZM53.2199 42.0835C52.9746 42.6396 52.5286 43.0664 51.9642 43.2852L49.1765 44.366C48.9155 44.4674 48.6379 44.5195 48.3579 44.5196C47.4471 44.5196 46.5857 43.9679 46.2371 43.069L46.0394 42.5589L43.9749 43.4203C44.0628 44.0601 43.9484 44.7188 43.6318 45.2944C43.2418 46.0037 42.5988 46.5198 41.8191 46.7503C42.0331 47.4979 41.9655 48.3239 41.5653 49.0513C40.9671 50.1393 39.7977 50.718 38.633 50.6201C38.6429 51.1464 38.5144 51.6661 38.2604 52.1271C37.8672 52.8422 37.2166 53.361 36.4282 53.5879C35.9944 53.7138 35.538 53.7416 35.0922 53.6691C35.0829 54.1592 34.9544 54.6396 34.7178 55.0689C34.3244 55.7841 33.6459 56.3212 32.8564 56.5426C32.5884 56.6181 32.3113 56.6566 32.0328 56.6569C31.5161 56.6571 31.0084 56.5213 30.5607 56.2632L29.8871 55.8764C29.4945 56.3892 28.9522 56.7667 28.3193 56.9585C28.0239 57.0484 27.7169 57.0942 27.4081 57.0945C26.9035 57.0945 26.4044 56.9707 25.9482 56.7268C25.3265 56.3951 24.836 55.8618 24.5574 55.2145C23.7387 55.5249 22.7986 55.4901 21.9813 55.053C21.426 54.7555 20.9744 54.2963 20.6862 53.7363C19.816 54.1626 18.7624 54.1799 17.8472 53.6904C17.1159 53.2992 16.58 52.6446 16.3383 51.847C16.2163 51.4475 16.1758 51.0275 16.2192 50.6121C15.7328 50.6015 15.2558 50.4764 14.8267 50.247C14.0955 49.8558 13.5596 49.2012 13.318 48.4035C13.0761 47.6057 13.1585 46.7637 13.5495 46.0325L14.2729 44.6798C14.1157 44.2857 14.0349 43.863 13.958 43.4494C13.8259 42.7398 13.7184 42.2666 13.4368 42.1572C13.3062 42.1065 13.0021 41.9802 11.9209 41.4989L11.6691 42.0683C11.2942 42.9162 10.4604 43.4216 9.58806 43.4216C9.28163 43.4216 8.97067 43.3593 8.67297 43.2277L5.93813 42.019C5.38453 41.7743 4.9587 41.3275 4.73939 40.7605C4.52008 40.1935 4.53401 39.5765 4.7787 39.0229L11.0577 24.8167C11.3023 24.2631 11.7492 23.8374 12.3162 23.618C12.883 23.3985 13.5 23.4125 14.0538 23.6573L16.7887 24.866C17.9343 25.3722 18.4545 26.7163 17.9481 27.8621L17.5259 28.8172L19.1965 29.5879C19.2184 29.5981 19.2401 29.6092 19.2613 29.621C20.1979 30.1481 21.1988 29.9134 22.466 29.6163C24.1617 29.2188 26.245 28.731 28.6823 30.1356C32.051 28.0845 34.6376 29.139 36.5496 29.9205C37.9315 30.4853 38.7524 30.7844 39.5555 30.3667L41.0106 29.5878L40.6226 28.5869C40.1699 27.4189 40.7518 26.1004 41.9194 25.6476L44.7074 24.5669C45.2718 24.3481 45.8889 24.3629 46.4449 24.6082C47.001 24.8536 47.4278 25.2995 47.6466 25.8638L53.2608 40.3455C53.48 40.9102 53.4654 41.5273 53.2199 42.0835ZM10.0117 41.3356L16.2906 27.1295C16.3566 26.9799 16.3231 26.8456 16.2974 26.7786C16.2714 26.7118 16.2057 26.5898 16.0563 26.5237L13.3214 25.315C13.2643 25.2896 13.2026 25.2765 13.1401 25.2765C13.0682 25.2765 13.0085 25.2936 12.9706 25.3084C12.9038 25.3343 12.7818 25.3999 12.7158 25.5494L6.43691 39.7556C6.37075 39.9051 6.40429 40.0396 6.43011 40.1064C6.45594 40.1732 6.52165 40.2952 6.67118 40.3613L9.40613 41.57C9.63359 41.6707 9.91102 41.5632 10.0117 41.3356ZM17.0775 48.5395L18.8515 45.4696C19.1173 44.8513 18.8669 44.1265 18.2714 43.8087C17.6379 43.4705 16.8473 43.7096 16.5092 44.3421L15.1479 46.8873C14.985 47.1917 14.9512 47.5434 15.0525 47.8778C15.1539 48.2122 15.3773 48.486 15.6817 48.6488C16.129 48.888 16.6748 48.8408 17.0775 48.5395ZM20.4686 51.5493L22.4385 47.7344C22.5384 47.1845 22.2694 46.6124 21.7752 46.3485C21.324 46.1076 20.7741 46.1567 20.3706 46.4635L18.1687 50.3307C18.0058 50.6352 17.972 50.9868 18.0733 51.3212C18.1747 51.6556 18.3981 51.9294 18.7024 52.0922C19.3348 52.4305 20.1268 52.1868 20.4686 51.5493ZM24.4774 53.1035L26.2196 49.7554C26.3188 49.2058 26.0499 48.6343 25.556 48.3707C25.064 48.1081 24.4439 48.198 24.0426 48.5781L22.1522 52.2392C22.1276 52.7395 22.3911 53.2167 22.8362 53.4548C23.3953 53.7537 24.0912 53.6012 24.4774 53.1035ZM28.5648 54.5946L29.8699 52.1539C30.1048 51.7148 30.0639 51.1691 29.7657 50.7636C29.6524 50.6092 29.5057 50.4824 29.3365 50.3927C28.8444 50.1297 28.2238 50.2201 27.8225 50.6014L26.1221 53.8694C26.0812 54.3803 26.3494 54.8856 26.8033 55.1285C27.4362 55.467 28.2263 55.2273 28.5648 54.5946ZM32.6385 52.5066C32.5937 52.4815 31.7959 52.015 31.7959 52.015C31.7442 52.3581 31.6362 52.6947 31.4682 53.0087L30.7787 54.298L31.4636 54.6915C31.7345 54.847 32.0555 54.8846 32.3673 54.7973C32.6914 54.7064 32.9693 54.487 33.1297 54.1954C33.4574 53.5997 33.2371 52.8422 32.6385 52.5066ZM30.6994 46.4704C30.5951 46.4124 30.5033 46.3343 30.4293 46.2406C30.3553 46.147 30.3005 46.0397 30.2681 45.9248C30.2356 45.81 30.2262 45.6898 30.2404 45.5713C30.2545 45.4528 30.2919 45.3382 30.3504 45.2342C30.409 45.1302 30.4875 45.0388 30.5814 44.9652C30.6754 44.8916 30.783 44.8373 30.898 44.8054C31.013 44.7735 31.1331 44.7646 31.2516 44.7793C31.37 44.7939 31.4844 44.8318 31.5882 44.8908L38.297 48.6658C38.8948 48.9944 39.6487 48.7755 39.9773 48.1777C40.303 47.5857 40.0808 46.8298 39.4817 46.4925C37.9089 45.6116 36.1265 44.6133 34.3729 43.6094C34.1665 43.4888 34.0162 43.2917 33.9545 43.0608C33.8929 42.8299 33.9249 42.5841 34.0436 42.3767C34.1623 42.1693 34.3581 42.0172 34.5884 41.9535C34.8188 41.8898 35.0649 41.9196 35.2733 42.0365C37.0202 43.0366 38.7994 44.0331 40.3691 44.9122L40.3694 44.9125C40.6498 45.0692 40.9781 45.1058 41.2939 45.0156C41.6174 44.923 41.8836 44.7118 42.0436 44.4211C42.2365 44.0703 42.2447 43.6583 42.0661 43.2904C41.9524 43.0561 41.7703 42.8619 41.5438 42.7334L34.1293 38.5073C32.9215 37.8191 31.3745 38.4456 29.5828 39.1708C26.8522 40.2761 23.4546 41.6516 20.5305 37.8888C20.3222 37.621 20.2428 37.2899 20.3066 36.9565C20.3705 36.6224 20.5677 36.3436 20.8617 36.1718C22.9439 34.9565 24.7014 33.6311 26.0858 32.232C26.3899 31.9244 26.7061 31.6289 27.0337 31.3464C25.54 30.7588 24.2399 31.0625 22.8798 31.3812C21.4373 31.7194 19.9462 32.0691 18.4061 31.2194L16.7933 30.4753L12.6538 39.8411C13.6166 40.2696 13.9728 40.4211 14.0929 40.4676C15.1096 40.8623 15.4508 41.7712 15.6344 42.5894C16.5809 41.7832 17.9632 41.5897 19.1248 42.2096C19.9961 42.6746 20.5603 43.5034 20.7221 44.4153C21.3769 44.3211 22.0447 44.4382 22.6284 44.7495C23.3332 45.1244 23.8663 45.7566 24.1168 46.5146C24.8857 46.303 25.7064 46.395 26.4093 46.7716C27.114 47.1466 27.6471 47.7787 27.8977 48.5366C28.6667 48.325 29.4877 48.4171 30.1906 48.7939C30.5442 48.9819 30.8576 49.2373 31.1131 49.5457L34.9955 51.7433C35.2788 51.9009 35.6097 51.9374 35.927 51.846C36.2485 51.7534 36.5132 51.5429 36.6725 51.2534C36.9983 50.6613 36.7759 49.9053 36.177 49.5683M45.3841 40.8684L41.671 31.2905L40.4017 31.9699C38.8048 32.8003 37.3099 32.1894 35.8641 31.5984C33.9726 30.8252 32.0164 30.0254 29.2061 31.9532C28.6024 32.3657 27.9865 32.888 27.3743 33.5066C26.0315 34.8636 24.3765 36.1493 22.4473 37.3346C24.3947 39.3154 26.4972 38.4644 28.9027 37.4905C30.9446 36.6638 33.0561 35.8091 35.0268 36.9324L42.4415 41.1584C42.7289 41.3219 42.9883 41.5301 43.2099 41.7754L45.3841 40.8684ZM51.5713 41.0011L45.9571 26.5192C45.8981 26.3667 45.7793 26.2955 45.7137 26.2666C45.6542 26.2404 45.59 26.2267 45.5251 26.2265C45.4696 26.2265 45.4147 26.2369 45.3631 26.2571L42.5751 27.3378C42.343 27.4277 42.223 27.6999 42.313 27.9322L47.9273 42.4138C48.0171 42.6458 48.289 42.7658 48.5215 42.676L51.3092 41.5951C51.4617 41.536 51.5329 41.4173 51.5618 41.3517C51.5906 41.2862 51.6304 41.1535 51.5713 41.0011ZM44.6609 27.6534C44.1478 27.6534 43.7319 28.0694 43.7319 28.5824C43.7319 28.8288 43.8298 29.0651 44.004 29.2393C44.1783 29.4135 44.4146 29.5114 44.6609 29.5114C44.9073 29.5114 45.1436 29.4135 45.3179 29.2393C45.4921 29.0651 45.59 28.8288 45.59 28.5824C45.59 28.336 45.4921 28.0997 45.3179 27.9255C45.1436 27.7513 44.9073 27.6534 44.6609 27.6534ZM45.8131 21.7727C45.8266 21.8991 45.8133 22.027 45.7742 22.1479C45.7351 22.2689 45.6709 22.3803 45.586 22.4748C45.501 22.5694 45.3971 22.645 45.281 22.6968C45.1649 22.7486 45.0392 22.7754 44.9121 22.7755H36.2389C36.2553 22.8825 36.2696 22.9902 36.2813 23.0988C36.2948 23.2252 36.2815 23.353 36.2424 23.474C36.2032 23.5949 36.1391 23.7063 36.0541 23.8009C35.9692 23.8954 35.8653 23.9711 35.7492 24.0229C35.6331 24.0747 35.5074 24.1015 35.3803 24.1016H22.6199C22.4928 24.1016 22.3671 24.0748 22.251 24.023C22.1348 23.9713 22.0309 23.8956 21.9459 23.8011C21.861 23.7065 21.7968 23.5951 21.7577 23.4741C21.7186 23.3532 21.7054 23.2253 21.7189 23.0989C21.7306 22.9903 21.7449 22.8825 21.7611 22.7755H13.0881C12.9609 22.7755 12.8352 22.7488 12.719 22.6971C12.6029 22.6453 12.4989 22.5697 12.4139 22.4751C12.329 22.3805 12.2648 22.2691 12.2257 22.1481C12.1866 22.027 12.1735 21.8992 12.1871 21.7727C12.4284 19.5181 13.8298 17.6537 15.7618 16.7408C15.1801 16.0952 14.8254 15.2413 14.8254 14.3059C14.8254 12.2979 16.459 10.6644 18.4669 10.6644C20.4748 10.6644 22.1085 12.298 22.1085 14.3059C22.1085 15.2447 21.7513 16.1015 21.1659 16.7479C22.1616 17.2215 23.0274 17.9501 23.6623 18.8637C24.3434 18.1401 25.1649 17.5629 26.0765 17.1673C25.3192 16.415 24.8494 15.3735 24.8494 14.2242C24.8494 11.9355 26.7114 10.0734 29.0002 10.0734C31.2889 10.0734 33.151 11.9355 33.151 14.2242C33.151 15.3736 32.6812 16.415 31.9238 17.1674C32.8354 17.563 33.6568 18.1402 34.338 18.8638C34.9728 17.9502 35.8386 17.2217 36.8345 16.748C36.249 16.1016 35.8919 15.2448 35.8919 14.306C35.8919 12.298 37.5255 10.6645 39.5334 10.6645C41.5413 10.6645 43.1749 12.2981 43.1749 14.306C43.1749 15.2414 42.8202 16.0952 42.2385 16.7409C44.1703 17.6536 45.572 19.518 45.8131 21.7727ZM39.5333 16.1351C40.5418 16.1351 41.3623 15.3146 41.3623 14.306C41.3623 13.2975 40.5418 12.477 39.5333 12.477C38.5247 12.477 37.7042 13.2975 37.7042 14.306C37.7042 15.3146 38.5247 16.1351 39.5333 16.1351ZM29 16.5624C30.2894 16.5624 31.3384 15.5135 31.3384 14.2241C31.3384 12.9348 30.2894 11.8858 29 11.8858C27.7108 11.8858 26.6618 12.9348 26.6618 14.2241C26.6619 15.5135 27.7109 16.5624 29 16.5624ZM18.4669 16.1351C19.4755 16.1351 20.296 15.3146 20.296 14.306C20.296 13.2975 19.4755 12.477 18.4669 12.477C17.4584 12.477 16.6379 13.2975 16.6379 14.306C16.6379 15.3146 17.4584 16.1351 18.4669 16.1351ZM22.282 20.9629C22.3532 20.7974 22.4306 20.6345 22.5139 20.4748C21.7653 18.948 20.1881 17.9475 18.4669 17.9475C16.5106 17.9475 14.8292 19.1891 14.2132 20.9629H22.282ZM34.2774 22.289C33.5911 19.9995 31.4755 18.3749 29 18.3749C26.5245 18.3749 24.4089 19.9995 23.7227 22.289H34.2774ZM43.787 20.9629C43.171 19.1891 41.4896 17.9475 39.5333 17.9475C37.8121 17.9475 36.235 18.948 35.4863 20.4749C35.5696 20.6346 35.6469 20.7974 35.7182 20.9629H43.787ZM51.073 24.7912C51.073 25.0316 51.1685 25.2621 51.3384 25.432C51.5084 25.602 51.7389 25.6975 51.9793 25.6975C52.2196 25.6975 52.4501 25.602 52.6201 25.432C52.79 25.2621 52.8855 25.0316 52.8855 24.7912C52.8855 20.5674 51.7673 16.4159 49.6519 12.7853C49.5299 12.5796 49.3316 12.4304 49.1001 12.3702C48.8686 12.3101 48.6227 12.3439 48.416 12.4643C48.2094 12.5848 48.0587 12.782 47.9968 13.0131C47.935 13.2441 47.967 13.4903 48.0859 13.6978C50.0401 17.0516 51.073 20.8877 51.073 24.7912ZM6.02094 25.6975C6.26129 25.6975 6.4918 25.602 6.66176 25.432C6.83171 25.2621 6.92719 25.0316 6.92719 24.7912C6.92719 19.9475 8.4967 15.4642 11.1521 11.8203L11.2172 13.6315C11.2214 13.7505 11.2491 13.8674 11.2985 13.9757C11.348 14.0839 11.4183 14.1814 11.5054 14.2624C11.5925 14.3435 11.6948 14.4067 11.8063 14.4482C11.9178 14.4898 12.0364 14.509 12.1553 14.5047C12.2743 14.5005 12.3912 14.4728 12.4995 14.4233C12.6077 14.3739 12.7052 14.3036 12.7862 14.2165C12.8673 14.1293 12.9305 14.0271 12.972 13.9156C13.0136 13.8041 13.0328 13.6855 13.0285 13.5665L12.8903 9.71893C16.9209 5.41367 22.6512 2.71826 29 2.71826C33.6724 2.71826 38.2286 4.20938 41.9852 6.94275L40.1596 7.00834C39.9194 7.01696 39.6925 7.12065 39.5287 7.29659C39.365 7.47254 39.2778 7.70633 39.2864 7.94653C39.2951 8.18673 39.3988 8.41367 39.5747 8.57742C39.7506 8.74117 39.9844 8.82833 40.2246 8.8197L44.4611 8.66757C44.5985 8.66265 44.733 8.62653 44.8544 8.56193C44.9758 8.49734 45.0809 8.40597 45.1618 8.29474C45.2426 8.18351 45.2971 8.05535 45.3211 7.91994C45.3451 7.78454 45.3379 7.64546 45.3002 7.51323L44.137 3.43658C44.0711 3.20543 43.916 3.00995 43.7059 2.89314C43.4959 2.77633 43.248 2.74775 43.0168 2.8137C42.7857 2.87965 42.5902 3.03471 42.4734 3.24479C42.3566 3.45486 42.328 3.70274 42.394 3.93388L42.7789 5.28295C38.7668 2.44911 33.9436 0.905762 29 0.905762C22.094 0.905762 15.8642 3.853 11.4993 8.55451L7.64528 9.65413C7.41415 9.72009 7.21869 9.87517 7.1019 10.0852C6.98511 10.2953 6.95656 10.5432 7.02252 10.7743C7.08848 11.0054 7.24356 11.2009 7.45363 11.3177C7.66371 11.4345 7.91157 11.463 8.1427 11.3971L9.50264 11.0091C6.74016 14.9055 5.11469 19.662 5.11469 24.7912C5.11469 25.0316 5.21017 25.2621 5.38013 25.432C5.55008 25.602 5.78059 25.6975 6.02094 25.6975Z" fill="#FF9924"/>
</svg>
