<svg width="60" height="57" viewBox="0 0 60 57" fill="none" xmlns="http://www.w3.org/2000/svg">
<path d="M17.74 37.375H0.625V0.625H42.625V12.49L40 15.115V3.25H3.25V22.15L6.925 18.475C7.11057 18.2895 7.3622 18.1854 7.62456 18.1854C7.88693 18.1854 8.13855 18.2895 8.32412 18.475C8.41606 18.5672 8.52529 18.6404 8.64556 18.6903C8.76583 18.7403 8.89478 18.766 9.025 18.766C9.15522 18.766 9.28416 18.7403 9.40443 18.6903C9.5247 18.6404 9.63394 18.5672 9.72587 18.475L16.7871 11.4138C16.9618 11.2391 17.1954 11.1361 17.4422 11.1249C17.6889 11.1137 17.9309 11.1952 18.1206 11.3534L25.2239 17.2754C25.3951 17.4183 25.6096 17.4992 25.8326 17.5049C26.0556 17.5106 26.274 17.4408 26.4524 17.3069L30.739 14.0913C30.9296 13.9482 31.1655 13.8787 31.4032 13.8955C31.641 13.9124 31.8646 14.0145 32.0331 14.1831L36.4825 18.6325L34.6266 20.4884L31.18 17.0417L28.03 19.4043C27.3787 19.8948 26.5806 20.1505 25.7655 20.1295C24.9504 20.1085 24.1664 19.8122 23.5412 19.2887L17.5851 14.3275L11.5791 20.3361C11.244 20.6718 10.8458 20.9378 10.4075 21.1189C9.96912 21.3 9.49928 21.3926 9.025 21.3914C8.64258 21.3914 8.26255 21.3311 7.89887 21.2129L3.25 25.8618V34.75H20.365L17.74 37.375ZM25.5625 7.13238V7.24525C25.5646 7.92594 25.8361 8.57812 26.3177 9.0592C26.7992 9.54028 27.4517 9.81112 28.1324 9.8125H28.2452C28.9264 9.8118 29.5793 9.54074 30.0607 9.05887C30.5421 8.577 30.8125 7.92374 30.8125 7.24262C30.8125 6.53181 30.5301 5.85011 30.0275 5.34749C29.5249 4.84487 28.8432 4.5625 28.1324 4.5625C27.4508 4.5625 26.7971 4.83325 26.3152 5.3152C25.8333 5.79714 25.5625 6.4508 25.5625 7.13238ZM54.532 9.865C54.3012 9.61651 54.0228 9.4169 53.7134 9.278C53.404 9.13911 53.0699 9.06375 52.7308 9.05641C52.3918 9.04906 52.0547 9.10988 51.7396 9.23525C51.4245 9.36062 51.1377 9.54799 50.8964 9.78625L16.3697 44.3155L11.7602 55.0675C11.6833 55.2466 11.6619 55.4447 11.6988 55.6361C11.7357 55.8275 11.8292 56.0035 11.9671 56.1412C12.1051 56.2789 12.2813 56.372 12.4728 56.4085C12.6643 56.445 12.8623 56.4232 13.0412 56.3459L23.7932 51.7364L58.3199 17.215C58.5581 16.9736 58.7455 16.6869 58.8709 16.3718C58.9962 16.0567 59.0571 15.7196 59.0497 15.3805C59.0424 15.0415 58.967 14.7073 58.8281 14.3979C58.6892 14.0885 58.4896 13.8102 58.2411 13.5794L54.532 9.865ZM15.7975 52.306L18.3227 46.426L21.6827 49.786L15.7975 52.306ZM23.7119 48.106L20.0027 44.3942L47.0324 17.362L50.7441 21.0737L23.7119 48.106ZM55.624 16.1965L52.6 19.2179L48.8882 15.5061L51.9569 12.4375C52.0607 12.3343 52.184 12.2528 52.3197 12.1978C52.4553 12.1428 52.6005 12.1154 52.7469 12.1171C52.8933 12.1188 53.0378 12.1496 53.1721 12.2078C53.3065 12.266 53.4279 12.3503 53.5292 12.4559L55.6397 14.6556C55.8389 14.8636 55.9487 15.1413 55.9458 15.4293C55.9428 15.7172 55.8273 15.9926 55.624 16.1965Z" fill="#FF5500"/>
</svg>
