<svg width="70" height="50" viewBox="0 0 70 50" fill="none" xmlns="http://www.w3.org/2000/svg">
<path fill-rule="evenodd" clip-rule="evenodd" d="M32.5 4.1665H57.5C60.9519 4.1665 63.75 6.96475 63.75 10.4165V22.9165C63.75 26.3684 60.9519 29.1665 57.5 29.1665H32.5C29.0482 29.1665 26.25 26.3684 26.25 22.9165V10.4165C26.25 6.96475 29.0482 4.1665 32.5 4.1665ZM32.5 6.2498C30.1988 6.2498 28.3333 8.11533 28.3333 10.4165V22.9165C28.3333 25.2178 30.1988 27.0832 32.5 27.0832H57.5C59.8013 27.0832 61.6667 25.2178 61.6667 22.9165V10.4165C61.6667 8.11533 59.8013 6.2498 57.5 6.2498H32.5Z" fill="#6FEE00"/>
<path fill-rule="evenodd" clip-rule="evenodd" d="M50.5278 14.9329L44.0724 10.6293C42.6878 9.70626 40.8334 10.6987 40.8334 12.3627V20.9698C40.8334 22.6338 42.6878 23.6263 44.0724 22.7033L50.5278 18.3997C51.7646 17.5752 51.7646 15.7575 50.5278 14.9329ZM42.9168 20.9699V12.3628L49.3722 16.6664L42.9168 20.9699ZM45.0001 37.4997C46.1507 37.4997 47.0834 36.567 47.0834 35.4164C47.0834 34.2658 46.1507 33.3331 45.0001 33.3331C43.8495 33.3331 42.9168 34.2658 42.9168 35.4164C42.9168 36.567 43.8495 37.4997 45.0001 37.4997ZM45.0001 39.583C47.3014 39.583 49.1668 37.7176 49.1668 35.4163C49.1668 33.115 47.3014 31.2497 45.0001 31.2497C42.6988 31.2497 40.8334 33.1151 40.8334 35.4164C40.8334 37.7177 42.6988 39.583 45.0001 39.583ZM59.5834 37.4997C60.734 37.4997 61.6667 36.567 61.6667 35.4164C61.6667 34.2658 60.734 33.3331 59.5834 33.3331C58.4328 33.3331 57.5001 34.2657 57.5001 35.4164C57.5001 36.567 58.4328 37.4997 59.5834 37.4997ZM59.5834 39.583C61.8847 39.583 63.7501 37.7176 63.7501 35.4163C63.7501 33.115 61.8847 31.2497 59.5834 31.2497C57.2821 31.2497 55.4167 33.1151 55.4167 35.4164C55.4167 37.7177 57.2822 39.583 59.5834 39.583ZM30.4168 37.4997C31.5674 37.4997 32.5001 36.567 32.5001 35.4164C32.5001 34.2658 31.5674 33.3331 30.4168 33.3331C29.2662 33.3331 28.3335 34.2658 28.3335 35.4164C28.3334 36.567 29.2662 37.4997 30.4168 37.4997ZM30.4168 39.583C32.718 39.583 34.5835 37.7176 34.5835 35.4163C34.5835 33.115 32.718 31.2497 30.4168 31.2497C28.1156 31.2497 26.2501 33.1151 26.2501 35.4164C26.2501 37.7177 28.1156 39.583 30.4168 39.583ZM34.4549 44.802C34.5968 45.3595 35.0498 45.833 35.6251 45.833C36.2004 45.833 36.6759 45.3632 36.5811 44.7957C36.0869 41.8376 33.5152 39.583 30.4168 39.583C27.3184 39.583 24.7465 41.8376 24.2523 44.7957C24.1575 45.3632 24.633 45.833 25.2083 45.833C25.7836 45.833 26.2366 45.3595 26.3785 44.802C26.8374 42.9994 28.4713 41.6663 30.4166 41.6663C32.3619 41.6663 33.996 42.9995 34.4549 44.802Z" fill="#6FEE00"/>
<path fill-rule="evenodd" clip-rule="evenodd" d="M49.0383 44.802C49.1802 45.3595 49.6333 45.833 50.2085 45.833C50.7837 45.833 51.2594 45.3632 51.1646 44.7957C50.6704 41.8376 48.0985 39.583 45.0002 39.583C41.9019 39.583 39.33 41.8376 38.8358 44.7957C38.741 45.3632 39.2165 45.833 39.7918 45.833C40.3671 45.833 40.8201 45.3595 40.962 44.802C41.421 42.9994 43.0549 41.6663 45.0001 41.6663C46.9454 41.6664 48.5794 42.9995 49.0383 44.802ZM63.6217 44.802C63.7636 45.3595 64.2167 45.833 64.7919 45.833C65.3671 45.833 65.8428 45.3632 65.7479 44.7957C65.2538 41.8376 62.6819 39.583 59.5836 39.583C56.4853 39.583 53.9134 41.8376 53.4192 44.7957C53.3244 45.3632 53.8001 45.833 54.3753 45.833C54.9505 45.833 55.4036 45.3595 55.5455 44.802C56.0045 42.9994 57.6384 41.6663 59.5836 41.6663C61.5288 41.6663 63.1627 42.9995 63.6217 44.802Z" fill="#6FEE00"/>
<path fill-rule="evenodd" clip-rule="evenodd" d="M23.3839 0.245219C30.5478 -0.839741 38.5374 1.73765 42.999 6.74666C47.1806 11.4414 43.9201 17.9302 44.4177 23.8599C44.994 30.7274 50.9783 38.2653 46.0982 43.6771C41.1558 49.1581 31.2796 48.2731 23.3839 47.1857C16.7355 46.2701 11.2877 42.6987 6.86305 38.2736C2.79311 34.2033 -0.49013 29.24 0.0604896 23.8599C0.577323 18.8099 5.77805 15.65 9.57152 11.8092C13.9018 7.42488 16.8481 1.23506 23.3839 0.245219Z" fill="white" fill-opacity="0.1"/>
</svg>
