<svg width="70" height="50" viewBox="0 0 70 50" fill="none" xmlns="http://www.w3.org/2000/svg">
<path d="M52.7397 31.4512L42.6147 25.7559C42.3766 25.6252 42.1086 25.5585 41.837 25.5622C41.5654 25.5659 41.2993 25.6399 41.0648 25.7771C40.8303 25.9142 40.6354 26.1098 40.499 26.3448C40.3626 26.5797 40.2894 26.846 40.2866 27.1177V38.5083C40.2894 38.7799 40.3626 39.0462 40.499 39.2812C40.6354 39.5161 40.8303 39.7117 41.0648 39.8489C41.2993 39.986 41.5654 40.0601 41.837 40.0638C42.1086 40.0675 42.3766 40.0007 42.6147 39.87L52.7397 34.1747C52.9785 34.0365 53.1767 33.8379 53.3145 33.5989C53.4523 33.3599 53.5249 33.0889 53.5249 32.813C53.5249 32.5371 53.4523 32.266 53.3145 32.027C53.1767 31.788 52.9785 31.5895 52.7397 31.4512ZM41.8491 38.5083L41.8444 27.1161L51.9741 32.8122L41.8491 38.5083Z" fill="#11E7FF"/>
<path d="M68.1822 13.1202L61.1509 6.08896C60.9989 5.95096 60.8036 5.87005 60.5986 5.86006H52.0048C51.3834 5.86068 50.7876 6.10781 50.3482 6.54721C49.9088 6.98661 49.6617 7.58239 49.6611 8.20381V21.4851H42.3407C45.8665 14.4616 40.3587 5.72021 32.4736 5.86006C19.3618 6.22099 17.5111 24.3913 30.1298 27.4757V42.5788C30.1302 42.9931 30.295 43.3903 30.5879 43.6832C30.8808 43.9761 31.278 44.1409 31.6923 44.1413H59.0361C59.4503 44.1409 59.8475 43.9761 60.1405 43.6832C60.4334 43.3903 60.5981 42.9931 60.5986 42.5788V27.7351H66.0673C66.6887 27.7344 67.2845 27.4873 67.7239 27.0479C68.1633 26.6085 68.4104 26.0127 68.4111 25.3913V13.6726C68.3995 13.4678 68.3188 13.2731 68.1822 13.1202ZM65.7447 12.8913H62.1611C61.9539 12.8911 61.7553 12.8087 61.6089 12.6623C61.4624 12.5158 61.38 12.3172 61.3798 12.1101V8.52724L65.7447 12.8913ZM23.0986 16.7976C23.1015 14.312 24.0901 11.9292 25.8476 10.1716C27.6052 8.4141 29.988 7.42545 32.4736 7.42256C44.9111 7.93818 44.9072 25.6593 32.4736 26.1726C29.988 26.1697 27.6052 25.181 25.8476 23.4235C24.0901 21.666 23.1015 19.2831 23.0986 16.7976ZM59.0361 42.5788H31.6923V27.696C33.5806 27.8346 35.4725 27.4788 37.1814 26.6635C38.8903 25.8482 40.3572 24.6017 41.4376 23.0468H59.0368L59.0361 42.5788ZM66.0673 26.1726H60.5986V23.0476C60.5981 22.6333 60.4334 22.2361 60.1405 21.9432C59.8475 21.6502 59.4503 21.4855 59.0361 21.4851H51.2236V8.20381C51.2238 7.99667 51.3061 7.79807 51.4526 7.65161C51.5991 7.50514 51.7977 7.42276 52.0048 7.42256H59.8173V12.1101C59.8179 12.7315 60.0651 13.3272 60.5045 13.7667C60.9439 14.2061 61.5396 14.4532 62.1611 14.4538H66.8486V25.3913C66.8484 25.5984 66.766 25.797 66.6195 25.9435C66.473 26.09 66.2744 26.1723 66.0673 26.1726Z" fill="#11E7FF"/>
<path d="M54.3486 12.1103H55.9111C56.1183 12.1103 56.317 12.028 56.4636 11.8815C56.6101 11.7349 56.6924 11.5362 56.6924 11.329C56.6924 11.1218 56.6101 10.9231 56.4636 10.7766C56.317 10.6301 56.1183 10.5478 55.9111 10.5478H54.3486C54.1414 10.5478 53.9427 10.6301 53.7962 10.7766C53.6497 10.9231 53.5674 11.1218 53.5674 11.329C53.5674 11.5362 53.6497 11.7349 53.7962 11.8815C53.9427 12.028 54.1414 12.1103 54.3486 12.1103ZM54.3486 16.0165H59.0361C59.2433 16.0165 59.442 15.9342 59.5886 15.7877C59.7351 15.6412 59.8174 15.4425 59.8174 15.2353C59.8174 15.0281 59.7351 14.8294 59.5886 14.6828C59.442 14.5363 59.2433 14.454 59.0361 14.454H54.3486C54.1414 14.454 53.9427 14.5363 53.7962 14.6828C53.6497 14.8294 53.5674 15.0281 53.5674 15.2353C53.5674 15.4425 53.6497 15.6412 53.7962 15.7877C53.9427 15.9342 54.1414 16.0165 54.3486 16.0165ZM62.9424 18.3603H54.3486C54.1414 18.3603 53.9427 18.4426 53.7962 18.5891C53.6497 18.7356 53.5674 18.9343 53.5674 19.1415C53.5674 19.3487 53.6497 19.5474 53.7962 19.694C53.9427 19.8405 54.1414 19.9228 54.3486 19.9228H62.9424C63.1496 19.9228 63.3483 19.8405 63.4948 19.694C63.6413 19.5474 63.7236 19.3487 63.7236 19.1415C63.7236 18.9343 63.6413 18.7356 63.4948 18.5891C63.3483 18.4426 63.1496 18.3603 62.9424 18.3603ZM34.0627 13.8986C34.5697 14.7923 36.9205 16.129 37.1877 14.454C37.1877 14.2468 37.1054 14.0481 36.9589 13.9016C36.8123 13.7551 36.6136 13.6728 36.4064 13.6728C35.1408 13.6728 34.2736 10.954 34.0517 9.63762C34.0155 9.44771 33.9103 9.27792 33.7564 9.16096C33.6024 9.044 33.4106 8.98815 33.218 9.00415C33.0253 9.02016 32.8454 9.1069 32.7128 9.24766C32.5803 9.38842 32.5046 9.57324 32.5002 9.76653V18.0142C31.9055 17.6724 31.2147 17.5364 30.5349 17.6273C29.855 17.7182 29.2242 18.031 28.7403 18.5171C28.2564 19.0032 27.9465 19.6354 27.8587 20.3157C27.7708 20.9959 27.9099 21.6861 28.2545 22.2792C28.599 22.8723 29.1296 23.3351 29.764 23.5958C30.3985 23.8564 31.1012 23.9004 31.7632 23.7209C32.4251 23.5414 33.0093 23.1484 33.4251 22.6029C33.8409 22.0574 34.065 21.3899 34.0627 20.704V13.8986ZM30.9377 22.2665C30.5233 22.2665 30.1259 22.1019 29.8328 21.8089C29.5398 21.5159 29.3752 21.1184 29.3752 20.704C29.3752 20.2896 29.5398 19.8922 29.8328 19.5992C30.1259 19.3061 30.5233 19.1415 30.9377 19.1415C31.3521 19.1415 31.7495 19.3061 32.0425 19.5992C32.3356 19.8922 32.5002 20.2896 32.5002 20.704C32.5002 21.1184 32.3356 21.5159 32.0425 21.8089C31.7495 22.1019 31.3521 22.2665 30.9377 22.2665Z" fill="#11E7FF"/>
<path fill-rule="evenodd" clip-rule="evenodd" d="M23.3839 0.245219C30.5478 -0.839741 38.5374 1.73765 42.999 6.74666C47.1806 11.4414 43.9201 17.9302 44.4177 23.8599C44.994 30.7274 50.9783 38.2653 46.0982 43.6771C41.1558 49.1581 31.2796 48.2731 23.3839 47.1857C16.7355 46.2701 11.2877 42.6987 6.86305 38.2736C2.79311 34.2033 -0.49013 29.24 0.0604896 23.8599C0.577323 18.8099 5.77805 15.65 9.57152 11.8092C13.9018 7.42488 16.8481 1.23506 23.3839 0.245219Z" fill="white" fill-opacity="0.1"/>
</svg>
