<svg width="70" height="50" viewBox="0 0 70 50" fill="none" xmlns="http://www.w3.org/2000/svg">
<path d="M66.761 39.9584L64.5032 28.4061C64.174 26.4686 63.2882 24.6687 61.9536 23.226C60.6191 21.7833 58.8936 20.76 56.9876 20.2811C56.7892 20.2385 56.5821 20.2747 56.41 20.3821C56.2378 20.4895 56.1142 20.6597 56.0653 20.8565C56.0164 21.0534 56.046 21.2616 56.1478 21.4371C56.2497 21.6126 56.4158 21.7415 56.611 21.7967C58.2286 22.2031 59.6923 23.0732 60.8221 24.3002C61.9518 25.5271 62.6985 27.0574 62.9704 28.703L65.2267 40.2545C66.147 45.2819 59.061 47.3561 57.1251 42.6428L56.6118 41.3748C56.1488 40.1977 55.3408 39.1879 54.2938 38.4781C53.2467 37.7683 52.0096 37.3917 50.7446 37.3975H39.2462C37.9821 37.3914 36.7457 37.7675 35.6991 38.4764C34.6525 39.1854 33.8446 40.194 33.3813 41.3702L32.8626 42.6498C30.9095 47.3577 23.8595 45.2741 24.7634 40.2577L27.0212 28.7022C27.3831 26.6326 28.4726 24.7605 30.0931 23.4233C31.0599 22.6528 32.1807 22.0984 33.3798 21.7975C33.4794 21.7728 33.5732 21.7287 33.6558 21.6678C33.7384 21.6068 33.8082 21.5302 33.8612 21.4423C33.9141 21.3543 33.9492 21.2568 33.9645 21.1553C33.9798 21.0538 33.9749 20.9503 33.9501 20.8506C33.5165 19.2366 29.8821 21.5858 29.1196 22.2006C27.2081 23.7695 25.92 25.9697 25.4876 28.4045L23.2298 39.9592C22.0212 46.8577 31.6118 49.6686 34.3142 43.2288L34.8321 41.9506C35.1806 41.0652 35.7886 40.3058 36.5763 39.7721C37.364 39.2384 38.2947 38.9553 39.2462 38.96H50.7446C51.697 38.9556 52.6284 39.2393 53.4166 39.7738C54.2048 40.3084 54.8129 41.0689 55.161 41.9553L55.6751 43.2241C56.2114 44.5662 57.2291 45.6599 58.5292 46.2913C59.8293 46.9227 61.3183 47.0462 62.7047 46.6379C64.0911 46.2295 65.2752 45.3185 66.0254 44.0831C66.7756 42.8478 67.038 41.377 66.761 39.9584Z" fill="#FF2529"/>
<path d="M50.4641 30.3015C50.4641 31.2286 50.739 32.1348 51.2541 32.9057C51.7691 33.6766 52.5012 34.2774 53.3577 34.6322C54.2143 34.9869 55.1568 35.0798 56.066 34.8989C56.9753 34.718 57.8106 34.2716 58.4661 33.616C59.1217 32.9605 59.5681 32.1252 59.749 31.216C59.9299 30.3067 59.837 29.3642 59.4822 28.5076C59.1275 27.6511 58.5267 26.919 57.7558 26.404C56.9849 25.8889 56.0787 25.614 55.1516 25.614C53.9087 25.6152 52.7172 26.1095 51.8384 26.9883C50.9596 27.8671 50.4653 29.0586 50.4641 30.3015ZM58.2758 30.3015C58.2758 30.9195 58.0925 31.5237 57.7491 32.0376C57.4057 32.5515 56.9177 32.9521 56.3467 33.1886C55.7757 33.4251 55.1473 33.487 54.5411 33.3664C53.9349 33.2458 53.3781 32.9482 52.9411 32.5112C52.504 32.0741 52.2064 31.5173 52.0858 30.9111C51.9652 30.3049 52.0271 29.6766 52.2637 29.1056C52.5002 28.5346 52.9007 28.0465 53.4146 27.7031C53.9285 27.3597 54.5327 27.1765 55.1508 27.1765C55.9793 27.1773 56.7737 27.5068 57.3596 28.0927C57.9454 28.6785 58.275 29.4729 58.2758 30.3015ZM34.8398 35.7702C35.4613 35.7696 36.057 35.5225 36.4964 35.0831C36.9358 34.6437 37.183 34.0479 37.1836 33.4265V32.6452H37.9648C38.5864 32.6452 39.1826 32.3983 39.6221 31.9587C40.0617 31.5192 40.3086 30.9231 40.3086 30.3015C40.3086 29.6799 40.0617 29.0837 39.6221 28.6442C39.1826 28.2046 38.5864 27.9577 37.9648 27.9577H37.1836V27.1765C37.1836 26.5549 36.9367 25.9587 36.4971 25.5192C36.0576 25.0796 35.4614 24.8327 34.8398 24.8327C34.2182 24.8327 33.6221 25.0796 33.1826 25.5192C32.743 25.9587 32.4961 26.5549 32.4961 27.1765V27.9577H31.7148C31.0932 27.9577 30.4971 28.2046 30.0576 28.6442C29.618 29.0837 29.3711 29.6799 29.3711 30.3015C29.3711 30.9231 29.618 31.5192 30.0576 31.9587C30.4971 32.3983 31.0932 32.6452 31.7148 32.6452H32.4961V33.4265C32.4967 34.0479 32.7438 34.6437 33.1832 35.0831C33.6227 35.5225 34.2184 35.7696 34.8398 35.7702ZM31.7148 31.0827C31.5076 31.0827 31.3089 31.0004 31.1624 30.8539C31.0159 30.7074 30.9336 30.5087 30.9336 30.3015C30.9336 30.0943 31.0159 29.8955 31.1624 29.749C31.3089 29.6025 31.5076 29.5202 31.7148 29.5202H33.2773C33.4845 29.5202 33.6833 29.4379 33.8298 29.2914C33.9763 29.1449 34.0586 28.9462 34.0586 28.739V27.1765C34.0586 26.9693 34.1409 26.7705 34.2874 26.624C34.4339 26.4775 34.6326 26.3952 34.8398 26.3952C35.047 26.3952 35.2458 26.4775 35.3923 26.624C35.5388 26.7705 35.6211 26.9693 35.6211 27.1765V28.739C35.6211 28.9462 35.7034 29.1449 35.8499 29.2914C35.9964 29.4379 36.1951 29.5202 36.4023 29.5202H37.9648C38.172 29.5202 38.3708 29.6025 38.5173 29.749C38.6638 29.8955 38.7461 30.0943 38.7461 30.3015C38.7461 30.5087 38.6638 30.7074 38.5173 30.8539C38.3708 31.0004 38.172 31.0827 37.9648 31.0827H36.4023C36.1951 31.0827 35.9964 31.165 35.8499 31.3115C35.7034 31.458 35.6211 31.6568 35.6211 31.864V33.4265C35.6211 33.6337 35.5388 33.8324 35.3923 33.9789C35.2458 34.1254 35.047 34.2077 34.8398 34.2077C34.6326 34.2077 34.4339 34.1254 34.2874 33.9789C34.1409 33.8324 34.0586 33.6337 34.0586 33.4265V31.864C34.0586 31.6568 33.9763 31.458 33.8298 31.3115C33.6833 31.165 33.4845 31.0827 33.2773 31.0827H31.7148ZM34.7289 16.3413L35.8836 16.5062C36.0957 17.3017 36.4122 18.0656 36.825 18.778L36.1258 19.7101C36.013 19.8605 35.9582 20.0466 35.9716 20.2342C35.9849 20.4217 36.0655 20.5982 36.1984 20.7312L38.3273 22.8601C38.4603 22.9931 38.6369 23.0736 38.8245 23.0868C39.0121 23.1 39.1981 23.045 39.3484 22.9319L40.2797 22.2335C40.9925 22.6458 41.7567 22.9621 42.5523 23.1741L42.718 24.3288C42.7445 24.515 42.8373 24.6855 42.9794 24.8087C43.1215 24.932 43.3033 24.9999 43.4914 24.9999H46.4992C46.6873 24.9999 46.8691 24.932 47.0112 24.8087C47.1533 24.6855 47.2461 24.515 47.2727 24.3288L47.4383 23.1741C48.234 22.9621 48.9981 22.6458 49.7109 22.2335L50.643 22.9319C50.7933 23.045 50.9793 23.1 51.1669 23.0868C51.3546 23.0736 51.5311 22.9931 51.6641 22.8601L53.793 20.7312C53.9258 20.5981 54.0062 20.4216 54.0194 20.234C54.0326 20.0465 53.9777 19.8604 53.8648 19.7101L53.1656 18.778C53.5784 18.0656 53.895 17.3017 54.107 16.5062L55.2617 16.3413C55.4477 16.3145 55.6179 16.2215 55.741 16.0795C55.8641 15.9374 55.9319 15.7558 55.932 15.5679V12.5585C55.9319 12.3705 55.8641 12.1889 55.741 12.0469C55.6179 11.9049 55.4477 11.8119 55.2617 11.7851L54.107 11.6194C53.895 10.8239 53.5784 10.0599 53.1656 9.34756L53.8648 8.41631C53.978 8.26589 54.033 8.07969 54.0198 7.89195C54.0066 7.70421 53.926 7.52754 53.793 7.39443L51.6641 5.26631C51.5312 5.13319 51.3547 5.05254 51.1671 5.03919C50.9795 5.02584 50.7934 5.08069 50.643 5.19365L49.7109 5.89209C48.9981 5.47978 48.234 5.1635 47.4383 4.95146L47.2734 3.79678C47.2467 3.61068 47.1538 3.44046 47.0118 3.31733C46.8697 3.19421 46.688 3.12644 46.5 3.12646H43.4922C43.3042 3.12644 43.1225 3.19421 42.9804 3.31733C42.8384 3.44046 42.7454 3.61068 42.7187 3.79678L42.5531 4.95146C41.7574 5.16351 40.9933 5.47979 40.2805 5.89209L39.3492 5.19365C39.1988 5.08069 39.0127 5.02584 38.8251 5.03919C38.6375 5.05254 38.461 5.13319 38.3281 5.26631L36.1992 7.39443C36.066 7.52744 35.9854 7.70405 35.972 7.8918C35.9587 8.07954 36.0135 8.2658 36.1266 8.41631L36.8258 9.34756C36.413 10.0599 36.0965 10.8239 35.8844 11.6194L34.7297 11.7851C34.5437 11.8119 34.3735 11.9049 34.2504 12.0469C34.1273 12.1889 34.0595 12.3705 34.0594 12.5585V15.5671C34.0595 15.755 34.1273 15.9367 34.2504 16.0787C34.3735 16.2207 34.5437 16.3137 34.7297 16.3405L34.7289 16.3413ZM35.6211 13.2358L36.632 13.0913C36.7913 13.0686 36.9396 12.9972 37.0568 12.8871C37.1739 12.7769 37.2542 12.6332 37.2867 12.4757C37.4863 11.4982 37.8717 10.5681 38.4219 9.73584C38.5107 9.60133 38.5558 9.44263 38.5509 9.2815C38.546 9.12037 38.4914 8.9647 38.3945 8.83584L37.782 8.02022L38.9523 6.8499L39.7688 7.4624C39.8975 7.5589 40.0529 7.61325 40.2138 7.618C40.3746 7.62276 40.533 7.57769 40.6672 7.48897C41.4999 6.93902 42.4302 6.55369 43.4078 6.35381C43.5654 6.32143 43.7091 6.24115 43.8193 6.12396C43.9295 6.00677 44.0008 5.85839 44.0234 5.69912L44.1688 4.68896H45.8227L45.9672 5.69912C45.9898 5.85839 46.0611 6.00677 46.1713 6.12396C46.2815 6.24115 46.4252 6.32143 46.5828 6.35381C47.5602 6.55379 48.4902 6.93912 49.3227 7.48897C49.457 7.57804 49.6157 7.62331 49.7769 7.61855C49.938 7.6138 50.0938 7.55925 50.2227 7.4624L51.0383 6.8499L52.2086 8.02022L51.5961 8.83584C51.4994 8.96479 51.4449 9.1205 51.4401 9.28163C51.4354 9.44276 51.4806 9.60141 51.5695 9.73584C52.1197 10.5681 52.5051 11.4982 52.7047 12.4757C52.7371 12.6331 52.8173 12.7767 52.9343 12.8868C53.0514 12.997 53.1995 13.0684 53.3586 13.0913L54.3695 13.2358V14.8897L53.3586 15.0351C53.1995 15.058 53.0514 15.1293 52.9343 15.2395C52.8173 15.3497 52.7371 15.4933 52.7047 15.6507C52.505 16.6279 52.1196 17.5577 51.5695 18.3897C51.4804 18.5243 51.4351 18.6831 51.4398 18.8444C51.4446 19.0056 51.4992 19.1615 51.5961 19.2905L52.2086 20.1062L51.0383 21.2757L50.2227 20.6632C50.0939 20.5661 49.9381 20.5114 49.7769 20.5067C49.6157 20.5019 49.457 20.5473 49.3227 20.6366C48.4902 21.1865 47.5602 21.5718 46.5828 21.7718C46.4252 21.8042 46.2815 21.8844 46.1713 22.0016C46.0611 22.1188 45.9898 22.2672 45.9672 22.4265L45.8227 23.4374H44.1688L44.0234 22.4265C44.0008 22.2672 43.9295 22.1188 43.8193 22.0016C43.7091 21.8844 43.5654 21.8042 43.4078 21.7718C42.4304 21.5718 41.5004 21.1865 40.668 20.6366C40.5337 20.5475 40.3752 20.5022 40.2141 20.507C40.0531 20.5117 39.8975 20.5663 39.7688 20.6632L38.9523 21.2765L37.782 20.1062L38.3945 19.2905C38.4916 19.1616 38.5463 19.0058 38.5512 18.8445C38.5561 18.6832 38.5109 18.5243 38.4219 18.3897C37.8718 17.5577 37.4864 16.6279 37.2867 15.6507C37.2542 15.4932 37.1739 15.3495 37.0568 15.2393C36.9396 15.1291 36.7913 15.0578 36.632 15.0351L35.6211 14.8897V13.2358Z" fill="#FF2529"/>
<path d="M44.9956 19.5313C46.4455 19.5296 47.8355 18.9529 48.8608 17.9277C49.886 16.9025 50.4627 15.5124 50.4644 14.0626C50.4675 13.2436 50.2828 12.4349 49.9245 11.6985C49.8809 11.6042 49.8189 11.5195 49.7422 11.4495C49.6655 11.3794 49.5756 11.3253 49.4777 11.2905C49.3798 11.2556 49.276 11.2406 49.1722 11.2463C49.0685 11.252 48.967 11.2784 48.8735 11.3239C48.7801 11.3693 48.6967 11.433 48.6282 11.5111C48.5596 11.5892 48.5074 11.6802 48.4744 11.7787C48.4415 11.8772 48.4285 11.9814 48.4363 12.085C48.4441 12.1886 48.4725 12.2896 48.5198 12.3821C48.7738 12.9057 48.9044 13.4806 48.9019 14.0626C48.9019 14.8351 48.6728 15.5904 48.2435 16.2327C47.8143 16.8751 47.2042 17.3758 46.4905 17.6715C45.7767 17.9671 44.9913 18.0445 44.2335 17.8937C43.4758 17.743 42.7798 17.371 42.2335 16.8247C41.6872 16.2784 41.3151 15.5824 41.1644 14.8246C41.0137 14.0669 41.091 13.2815 41.3867 12.5677C41.6824 11.8539 42.183 11.2438 42.8254 10.8146C43.4678 10.3854 44.223 10.1563 44.9956 10.1563C45.578 10.1533 46.1532 10.2843 46.6769 10.5391C46.8633 10.6299 47.0782 10.6428 47.2743 10.5751C47.4703 10.5074 47.6314 10.3647 47.7222 10.1782C47.8129 9.9917 47.8259 9.7768 47.7582 9.58077C47.6905 9.38473 47.5477 9.22362 47.3612 9.13286C46.6243 8.77465 45.815 8.59023 44.9956 8.5938C44.2774 8.5938 43.5663 8.73525 42.9028 9.01008C42.2393 9.28492 41.6364 9.68774 41.1286 10.1956C40.6208 10.7034 40.218 11.3063 39.9431 11.9698C39.6683 12.6333 39.5269 13.3444 39.5269 14.0626C39.5269 14.7807 39.6683 15.4919 39.9431 16.1554C40.218 16.8188 40.6208 17.4217 41.1286 17.9295C41.6364 18.4374 42.2393 18.8402 42.9028 19.115C43.5663 19.3898 44.2774 19.5313 44.9956 19.5313Z" fill="#FF2529"/>
<path fill-rule="evenodd" clip-rule="evenodd" d="M23.3839 0.245219C30.5478 -0.839741 38.5374 1.73765 42.999 6.74666C47.1806 11.4414 43.9201 17.9302 44.4177 23.8599C44.994 30.7274 50.9783 38.2653 46.0982 43.6771C41.1558 49.1581 31.2796 48.2731 23.3839 47.1857C16.7355 46.2701 11.2877 42.6987 6.86305 38.2736C2.79311 34.2033 -0.49013 29.24 0.0604896 23.8599C0.577323 18.8099 5.77805 15.65 9.57152 11.8092C13.9018 7.42488 16.8481 1.23506 23.3839 0.245219Z" fill="white" fill-opacity="0.1"/>
</svg>
