<svg width="70" height="50" viewBox="0 0 70 50" fill="none" xmlns="http://www.w3.org/2000/svg">
<path d="M27.7782 38.2955H37.2438V41.6807H36.604C35.8162 41.6781 35.0458 41.9126 34.393 42.3537C33.7402 42.7949 33.2353 43.4222 32.9438 44.1541L31.654 47.3651C31.6063 47.4836 31.5885 47.6121 31.602 47.7392C31.6155 47.8662 31.66 47.9881 31.7316 48.0939C31.8032 48.1998 31.8996 48.2865 32.0125 48.3465C32.1254 48.4064 32.2512 48.4377 32.379 48.4377H57.6212C57.749 48.4377 57.8748 48.4064 57.9877 48.3465C58.1006 48.2865 58.197 48.1998 58.2686 48.0939C58.3402 47.9881 58.3847 47.8662 58.3982 47.7392C58.4117 47.6121 58.3939 47.4836 58.3462 47.3651L57.0563 44.1541C56.7649 43.4222 56.2599 42.7949 55.6072 42.3537C54.9544 41.9126 54.184 41.6781 53.3962 41.6807H52.747V38.2955H62.2329C63.512 38.2926 64.7377 37.7825 65.6412 36.8771C66.5447 35.9717 67.0522 34.7449 67.0524 33.4658V11.6268C67.051 10.349 66.5428 9.12398 65.6392 8.22045C64.7357 7.31693 63.5107 6.80869 62.2329 6.80724H54.5095V2.43224C54.5094 2.24661 54.4433 2.06707 54.3229 1.92577C54.2025 1.78448 54.0357 1.69067 53.8524 1.66115C50.7792 1.29832 47.6714 1.94725 45.0001 3.50959C42.3303 1.94945 39.2251 1.30089 36.154 1.66193C35.9707 1.69145 35.804 1.78526 35.6836 1.92655C35.5632 2.06785 35.497 2.24739 35.497 2.43303V6.80803H27.7782C26.499 6.80802 25.272 7.31544 24.3664 8.21897C23.4609 9.12249 22.9507 10.3483 22.9478 11.6276V33.4658C22.9494 34.7464 23.4589 35.974 24.3644 36.8794C25.27 37.7848 26.4977 38.2941 27.7782 38.2955ZM55.6063 44.7362L56.4657 46.8752H33.5345L34.3938 44.7362C34.57 44.2943 34.875 43.9157 35.2691 43.6494C35.6633 43.3832 36.1284 43.2416 36.604 43.2432H53.3962C53.8718 43.2416 54.3369 43.3832 54.7311 43.6494C55.1252 43.9157 55.4302 44.2943 55.6063 44.7362ZM51.1845 41.6807H38.8063V38.2955H51.1845V41.6807ZM35.7712 17.7291C35.857 17.8026 35.9578 17.8565 36.0665 17.8873C36.1752 17.918 36.2893 17.9248 36.4009 17.9072C39.2593 17.6017 42.1375 18.2639 44.5751 19.7877C44.6017 19.8018 44.6291 19.8143 44.6571 19.8252C44.6829 19.8377 44.7063 19.8502 44.7353 19.8604C44.8208 19.8965 44.9127 19.9151 45.0056 19.9151C45.0984 19.9151 45.1903 19.8965 45.2759 19.8604C45.3024 19.8502 45.3259 19.8377 45.354 19.8252C45.3807 19.8142 45.4068 19.8016 45.4321 19.7877C47.8693 18.263 50.7479 17.6008 53.6063 17.9072C53.7179 17.925 53.8321 17.9183 53.9408 17.8877C54.0496 17.857 54.1504 17.8032 54.2363 17.7298C54.3223 17.6564 54.3913 17.5653 54.4385 17.4626C54.4858 17.36 54.5103 17.2484 54.5103 17.1354V12.2721H60.6368C60.9 12.2725 61.1522 12.3773 61.3382 12.5634C61.5242 12.7496 61.6288 13.0019 61.629 13.2651V31.8276C61.6286 32.0906 61.5239 32.3427 61.3379 32.5287C61.152 32.7147 60.8998 32.8193 60.6368 32.8197H29.3751C29.1121 32.8193 28.86 32.7147 28.674 32.5287C28.488 32.3427 28.3833 32.0906 28.3829 31.8276V13.2651C28.3831 13.0019 28.4877 12.7496 28.6737 12.5634C28.8597 12.3773 29.1119 12.2725 29.3751 12.2721H35.4978V17.1354C35.4977 17.2482 35.5222 17.3597 35.5694 17.4622C35.6166 17.5647 35.6854 17.6558 35.7712 17.7291ZM52.947 3.14553V16.2791C50.468 16.1645 48.0011 16.6868 45.7813 17.7963V4.88224C47.9512 3.62141 50.4406 3.01806 52.947 3.14553ZM44.2188 4.88224V17.7901C42.21 16.7836 39.9938 16.2604 37.747 16.2619C37.4899 16.2619 37.2587 16.269 37.0563 16.2791V11.5135C37.0563 11.5072 37.0603 11.5018 37.0603 11.4947C37.0603 11.4877 37.0563 11.4822 37.0563 11.476V7.60724C37.0563 7.601 37.0603 7.59474 37.0603 7.58849C37.0603 7.58224 37.0563 7.57599 37.0563 7.56974V3.14553C39.5616 3.01867 42.0499 3.622 44.2188 4.88224ZM24.5103 11.6268C24.5125 10.7618 24.8579 9.93299 25.4706 9.32236C26.0833 8.71172 26.9132 8.36912 27.7782 8.36974H35.497V10.7135H29.3751C28.6976 10.7141 28.0481 10.9836 27.5691 11.4627C27.0901 11.9418 26.8208 12.5915 26.8204 13.269V31.8315C26.8221 32.5081 27.0919 33.1566 27.5707 33.6347C28.0496 34.1128 28.6984 34.3816 29.3751 34.3822H60.636C61.3133 34.3814 61.9626 34.112 62.4416 33.6331C62.9205 33.1542 63.1899 32.5048 63.1907 31.8276V13.2651C63.1901 12.5876 62.9208 11.9381 62.4418 11.459C61.9629 10.9799 61.3135 10.7104 60.636 10.7096H54.5095V8.36584H62.2329C63.0964 8.36687 63.9243 8.71035 64.5348 9.32094C65.1454 9.93153 65.4889 10.7594 65.4899 11.6229V33.4658C65.4902 34.3307 65.1474 35.1603 64.5368 35.7727C63.9263 36.3852 63.0977 36.7305 62.2329 36.733H27.7782C26.9119 36.7322 26.0813 36.3877 25.4686 35.7752C24.8559 35.1627 24.5113 34.3322 24.5103 33.4658V11.6268Z" fill="#F8BC24"/>
<path d="M31.5977 25.3667C31.5977 25.5739 31.68 25.7726 31.8265 25.9191C31.973 26.0656 32.1717 26.148 32.3789 26.148H35.9086C36.1158 26.148 36.3145 26.0656 36.461 25.9191C36.6075 25.7726 36.6898 25.5739 36.6898 25.3667C36.6898 25.1595 36.6075 24.9608 36.461 24.8143C36.3145 24.6678 36.1158 24.5854 35.9086 24.5854H32.3789C32.1717 24.5854 31.973 24.6678 31.8265 24.8143C31.68 24.9608 31.5977 25.1595 31.5977 25.3667ZM39.0391 26.148H57.6211C57.8283 26.148 58.027 26.0656 58.1735 25.9191C58.32 25.7726 58.4023 25.5739 58.4023 25.3667C58.4023 25.1595 58.32 24.9608 58.1735 24.8143C58.027 24.6678 57.8283 24.5854 57.6211 24.5854H39.0391C38.8319 24.5854 38.6331 24.6678 38.4866 24.8143C38.3401 24.9608 38.2578 25.1595 38.2578 25.3667C38.2578 25.5739 38.3401 25.7726 38.4866 25.9191C38.6331 26.0656 38.8319 26.148 39.0391 26.148ZM35.9086 28.337H32.3789C32.1717 28.337 31.973 28.4193 31.8265 28.5658C31.68 28.7123 31.5977 28.9111 31.5977 29.1183C31.5977 29.3255 31.68 29.5242 31.8265 29.6707C31.973 29.8172 32.1717 29.8995 32.3789 29.8995H35.9086C36.1158 29.8995 36.3145 29.8172 36.461 29.6707C36.6075 29.5242 36.6898 29.3255 36.6898 29.1183C36.6898 28.9111 36.6075 28.7123 36.461 28.5658C36.3145 28.4193 36.1158 28.337 35.9086 28.337ZM39.0391 29.8995H57.6211C57.8283 29.8995 58.027 29.8172 58.1735 29.6707C58.32 29.5242 58.4023 29.3255 58.4023 29.1183C58.4023 28.9111 58.32 28.7123 58.1735 28.5658C58.027 28.4193 57.8283 28.337 57.6211 28.337H39.0391C38.8319 28.337 38.6331 28.4193 38.4866 28.5658C38.3401 28.7123 38.2578 28.9111 38.2578 29.1183C38.2578 29.3255 38.3401 29.5242 38.4866 29.6707C38.6331 29.8172 38.8319 29.8995 39.0391 29.8995Z" fill="#F8BC24"/>
<path fill-rule="evenodd" clip-rule="evenodd" d="M23.3839 0.245219C30.5478 -0.839741 38.5374 1.73765 42.999 6.74666C47.1806 11.4414 43.9201 17.9302 44.4177 23.8599C44.994 30.7274 50.9783 38.2653 46.0982 43.6771C41.1558 49.1581 31.2796 48.2731 23.3839 47.1857C16.7355 46.2701 11.2877 42.6987 6.86305 38.2736C2.79311 34.2033 -0.49013 29.24 0.0604896 23.8599C0.577323 18.8099 5.77805 15.65 9.57152 11.8092C13.9018 7.42488 16.8481 1.23506 23.3839 0.245219Z" fill="white" fill-opacity="0.1"/>
</svg>
