<svg width="151" height="49" viewBox="0 0 151 49" fill="none" xmlns="http://www.w3.org/2000/svg">
<path d="M49.1312 16.0128C49.2836 16.423 49.3162 16.868 49.2253 17.2952C49.1343 17.7224 48.9236 18.114 48.6179 18.4238C48.3121 18.7336 47.9243 18.9486 47.5 19.0435C47.0757 19.1384 46.6327 19.1092 46.2234 18.9594C45.814 18.8095 45.4553 18.5453 45.1896 18.1979C44.924 17.8504 44.7624 17.4343 44.724 16.9986C44.6856 16.5629 44.772 16.1257 44.973 15.7388C45.174 15.3519 45.4812 15.0313 45.8583 14.8149C45.9556 14.7574 46.0573 14.7076 46.1623 14.6659C45.6472 14.0827 44.3517 11.2899 42.3201 5.81252C42.125 5.28642 41.9208 4.73583 41.7058 4.15633C40.2308 5.50733 38.7474 6.85322 37.2733 8.20222C37.8676 9.92342 38.4597 11.6388 39.0381 13.361C25.7606 12.2157 31.938 12.3901 31.938 12.3901C38.6751 9.11544 39.5027 14.7061 39.7681 15.1222C42.0702 18.7665 38.5 18 38.5 18C14 12.5 18 34 18 34L12.3073 23.7044L12.3008 23.6871C11 22 11.393 19.8085 9.89347 18.3721C7.43994 18.2957 4.99215 18.2171 2.53734 18.1593C1.97129 18.1522 1.39397 18.2513 1.09271 17.5755C0.758192 16.8233 1.40729 16.5743 1.7968 16.2375L10.6294 8.50292C13.231 6.23263 15.8304 3.96042 18.4274 1.68637C18.9183 1.23323 19.5644 0.987695 20.2323 1.00047C28.1958 1.07187 36.1557 1.15119 44.6753 1.22509C43.8015 2.08349 43.2643 2.6165 42.7316 3.13963C45.2479 9.54533 46.4468 13.6628 46.4155 14.5868C46.4173 14.5943 46.4174 14.6021 46.4159 14.6097L46.5738 14.5511C46.6467 14.5366 46.7205 14.5267 46.7948 14.5218C47.2918 14.4799 47.7894 14.603 48.2114 14.8724C48.6335 15.1417 48.9565 15.5423 49.1312 16.0128Z" fill="white"/>
<path d="M33.18 41.3C31.6 41.3 30.14 41.04 28.8 40.52C27.48 39.98 26.33 39.23 25.35 38.27C24.37 37.29 23.61 36.14 23.07 34.82C22.55 33.48 22.29 32.01 22.29 30.41C22.29 28.85 22.57 27.41 23.13 26.09C23.69 24.77 24.46 23.63 25.44 22.67C26.44 21.69 27.61 20.93 28.95 20.39C30.31 19.85 31.79 19.58 33.39 19.58C34.39 19.58 35.37 19.71 36.33 19.97C37.29 20.23 38.18 20.62 39 21.14C39.84 21.64 40.56 22.24 41.16 22.94L38.04 26.51C37.62 26.07 37.17 25.69 36.69 25.37C36.23 25.03 35.72 24.77 35.16 24.59C34.6 24.41 34 24.32 33.36 24.32C32.56 24.32 31.8 24.47 31.08 24.77C30.38 25.05 29.76 25.46 29.22 26C28.7 26.52 28.29 27.16 27.99 27.92C27.69 28.68 27.54 29.53 27.54 30.47C27.54 31.39 27.69 32.23 27.99 32.99C28.29 33.73 28.71 34.37 29.25 34.91C29.79 35.45 30.44 35.86 31.2 36.14C31.98 36.42 32.84 36.56 33.78 36.56C34.42 36.56 35.03 36.47 35.61 36.29C36.19 36.11 36.72 35.87 37.2 35.57C37.7 35.25 38.14 34.89 38.52 34.49L40.98 38.39C40.48 38.95 39.81 39.45 38.97 39.89C38.15 40.33 37.23 40.68 36.21 40.94C35.21 41.18 34.2 41.3 33.18 41.3ZM51.4601 41.3C49.8001 41.3 48.3201 40.94 47.0201 40.22C45.7401 39.5 44.7201 38.52 43.9601 37.28C43.2201 36.04 42.8501 34.62 42.8501 33.02C42.8501 31.42 43.2201 30 43.9601 28.76C44.7201 27.52 45.7401 26.54 47.0201 25.82C48.3201 25.1 49.8001 24.74 51.4601 24.74C53.1201 24.74 54.5901 25.1 55.8701 25.82C57.1701 26.54 58.1901 27.52 58.9301 28.76C59.6701 30 60.0401 31.42 60.0401 33.02C60.0401 34.62 59.6701 36.04 58.9301 37.28C58.1901 38.52 57.1701 39.5 55.8701 40.22C54.5901 40.94 53.1201 41.3 51.4601 41.3ZM51.4601 37.16C52.1801 37.16 52.8201 36.98 53.3801 36.62C53.9401 36.26 54.3801 35.77 54.7001 35.15C55.0201 34.53 55.1701 33.82 55.1501 33.02C55.1701 32.22 55.0201 31.51 54.7001 30.89C54.3801 30.25 53.9401 29.75 53.3801 29.39C52.8201 29.03 52.1801 28.85 51.4601 28.85C50.7401 28.85 50.0901 29.03 49.5101 29.39C48.9501 29.75 48.5101 30.25 48.1901 30.89C47.8701 31.51 47.7201 32.22 47.7401 33.02C47.7201 33.82 47.8701 34.53 48.1901 35.15C48.5101 35.77 48.9501 36.26 49.5101 36.62C50.0901 36.98 50.7401 37.16 51.4601 37.16ZM69.2088 41.33C67.8288 41.33 66.5988 40.98 65.5188 40.28C64.4588 39.56 63.6188 38.58 62.9988 37.34C62.3788 36.08 62.0688 34.65 62.0688 33.05C62.0688 31.45 62.3788 30.03 62.9988 28.79C63.6188 27.53 64.4688 26.54 65.5488 25.82C66.6288 25.1 67.8688 24.74 69.2688 24.74C69.9888 24.74 70.6788 24.85 71.3388 25.07C71.9988 25.29 72.5988 25.59 73.1388 25.97C73.6788 26.35 74.1188 26.79 74.4588 27.29C74.7988 27.77 74.9988 28.27 75.0588 28.79L73.9188 29.06V18.8H78.7488V41H74.2788L74.0088 37.37L74.9688 37.52C74.9088 38.02 74.7088 38.5 74.3688 38.96C74.0488 39.42 73.6288 39.83 73.1088 40.19C72.5888 40.53 71.9888 40.8 71.3088 41C70.6488 41.22 69.9488 41.33 69.2088 41.33ZM70.4388 37.34C71.1788 37.34 71.8188 37.16 72.3588 36.8C72.8988 36.44 73.3088 35.94 73.5888 35.3C73.8888 34.66 74.0388 33.91 74.0388 33.05C74.0388 32.17 73.8888 31.41 73.5888 30.77C73.3088 30.13 72.8988 29.63 72.3588 29.27C71.8188 28.91 71.1788 28.73 70.4388 28.73C69.6988 28.73 69.0588 28.91 68.5188 29.27C67.9988 29.63 67.5888 30.13 67.2888 30.77C66.9888 31.41 66.8388 32.17 66.8388 33.05C66.8388 33.91 66.9888 34.66 67.2888 35.3C67.5888 35.94 67.9988 36.44 68.5188 36.8C69.0588 37.16 69.6988 37.34 70.4388 37.34ZM90.3977 41.3C88.6377 41.3 87.1077 40.95 85.8077 40.25C84.5077 39.53 83.4977 38.56 82.7777 37.34C82.0577 36.1 81.6977 34.69 81.6977 33.11C81.6977 31.89 81.8977 30.77 82.2977 29.75C82.6977 28.73 83.2577 27.85 83.9777 27.11C84.6977 26.35 85.5477 25.77 86.5277 25.37C87.5277 24.95 88.6177 24.74 89.7977 24.74C90.9177 24.74 91.9377 24.94 92.8577 25.34C93.7977 25.74 94.6077 26.3 95.2877 27.02C95.9677 27.74 96.4877 28.59 96.8477 29.57C97.2077 30.55 97.3677 31.62 97.3277 32.78L97.2977 34.07H84.6077L83.9177 31.37H93.3977L92.8877 31.94V31.34C92.8477 30.84 92.6877 30.4 92.4077 30.02C92.1477 29.62 91.7977 29.31 91.3577 29.09C90.9177 28.87 90.4177 28.76 89.8577 28.76C89.0777 28.76 88.4077 28.92 87.8477 29.24C87.3077 29.54 86.8977 29.99 86.6177 30.59C86.3377 31.17 86.1977 31.89 86.1977 32.75C86.1977 33.63 86.3777 34.4 86.7377 35.06C87.1177 35.7 87.6577 36.2 88.3577 36.56C89.0777 36.92 89.9277 37.1 90.9077 37.1C91.5877 37.1 92.1877 37 92.7077 36.8C93.2477 36.6 93.8277 36.26 94.4477 35.78L96.6977 38.96C96.0777 39.5 95.4177 39.94 94.7177 40.28C94.0177 40.62 93.2977 40.87 92.5577 41.03C91.8377 41.21 91.1177 41.3 90.3977 41.3ZM100.356 41V25.07H104.916L105.066 27.95L104.436 27.98C104.676 27.46 104.976 27 105.336 26.6C105.716 26.2 106.136 25.87 106.596 25.61C107.076 25.33 107.566 25.12 108.066 24.98C108.586 24.84 109.106 24.77 109.626 24.77C110.406 24.77 111.116 24.89 111.756 25.13C112.396 25.37 112.956 25.76 113.436 26.3C113.916 26.82 114.296 27.53 114.576 28.43L113.826 28.37L114.066 27.89C114.326 27.41 114.656 26.98 115.056 26.6C115.476 26.2 115.936 25.87 116.436 25.61C116.936 25.33 117.456 25.12 117.996 24.98C118.536 24.84 119.056 24.77 119.556 24.77C120.816 24.77 121.866 25.02 122.706 25.52C123.546 26 124.176 26.73 124.596 27.71C125.036 28.69 125.256 29.88 125.256 31.28V41H120.426V31.67C120.426 31.03 120.336 30.5 120.156 30.08C119.976 29.66 119.706 29.35 119.346 29.15C119.006 28.93 118.576 28.82 118.056 28.82C117.636 28.82 117.246 28.89 116.886 29.03C116.546 29.17 116.246 29.36 115.986 29.6C115.746 29.84 115.556 30.12 115.416 30.44C115.276 30.76 115.206 31.12 115.206 31.52V41H110.376V31.64C110.376 31.04 110.286 30.53 110.106 30.11C109.926 29.69 109.656 29.37 109.296 29.15C108.936 28.93 108.516 28.82 108.036 28.82C107.616 28.82 107.226 28.89 106.866 29.03C106.526 29.17 106.226 29.36 105.966 29.6C105.726 29.84 105.536 30.12 105.396 30.44C105.256 30.76 105.186 31.11 105.186 31.49V41H100.356ZM131.107 47.9L134.737 39.35L134.797 41.81L127.117 25.07H132.547L135.907 33.08C136.087 33.48 136.257 33.91 136.417 34.37C136.577 34.83 136.697 35.27 136.777 35.69L136.117 36.08C136.237 35.78 136.367 35.41 136.507 34.97C136.667 34.51 136.837 34.02 137.017 33.5L139.957 25.07H145.417L138.637 41L135.877 47.9H131.107Z" fill="white"/>
</svg>
