<svg width="190" height="49" viewBox="0 0 190 49" fill="none" xmlns="http://www.w3.org/2000/svg">

<!-- icon -->
<path d="M49.1312 16.0128C49.2836 16.423 49.3162 16.868 49.2253 17.2952C49.1343 17.7224 48.9236 18.114 48.6179 18.4238C48.3121 18.7336 47.9243 18.9486 47.5 19.0435C47.0757 19.1384 46.6327 19.1092 46.2234 18.9594C45.814 18.8095 45.4553 18.5453 45.1896 18.1979C44.924 17.8504 44.7624 17.4343 44.724 16.9986C44.6856 16.5629 44.772 16.1257 44.973 15.7388C45.174 15.3519 45.4812 15.0313 45.8583 14.8149C45.9556 14.7574 46.0573 14.7076 46.1623 14.6659C45.6472 14.0827 44.3517 11.2899 42.3201 5.81252C42.125 5.28642 41.9208 4.73583 41.7058 4.15633C40.2308 5.50733 38.7474 6.85322 37.2733 8.20222C37.8676 9.92342 38.4597 11.6388 39.0381 13.361C25.7606 12.2157 31.938 12.3901 31.938 12.3901C38.6751 9.11544 39.5027 14.7061 39.7681 15.1222C42.0702 18.7665 38.5 18 38.5 18C14 12.5 18 34 18 34L12.3073 23.7044L12.3008 23.6871C11 22 11.393 19.8085 9.89347 18.3721C7.43994 18.2957 4.99215 18.2171 2.53734 18.1593C1.97129 18.1522 1.39397 18.2513 1.09271 17.5755C0.758192 16.8233 1.40729 16.5743 1.7968 16.2375L10.6294 8.50292C13.231 6.23263 15.8304 3.96042 18.4274 1.68637C18.9183 1.23323 19.5644 0.987695 20.2323 1.00047C28.1958 1.07187 36.1557 1.15119 44.6753 1.22509C43.8015 2.08349 43.2643 2.6165 42.7316 3.13963C45.2479 9.54533 46.4468 13.6628 46.4155 14.5868C46.4173 14.5943 46.4174 14.6021 46.4159 14.6097L46.5738 14.5511C46.6467 14.5366 46.7205 14.5267 46.7948 14.5218C47.2918 14.4799 47.7894 14.603 48.2114 14.8724C48.6335 15.1417 48.9565 15.5423 49.1312 16.0128Z" fill="white"/>

<!-- text -->
<text x="60" y="33" fill="white" font-size="24" font-family="Inter, Arial, sans-serif" font-weight="700">
CODEDOT
</text>

</svg>
