<svg width="190" height="49" viewBox="0 0 190 49" fill="none" xmlns="http://www.w3.org/2000/svg">

<!-- icon -->
<path d="M49.787 16.0128C49.9394 16.423 49.972 16.868 49.8811 17.2952C49.7901 17.7224 49.5794 18.114 49.2737 18.4238C48.9679 18.7336 48.5801 18.9486 48.1558 19.0435C47.7315 19.1384 47.2885 19.1092 46.8792 18.9594C46.4698 18.8095 46.1111 18.5453 45.8454 18.1979C45.5798 17.8504 45.4182 17.4343 45.3798 16.9986C45.3414 16.5629 45.4278 16.1257 45.6288 15.7388C45.8298 15.3519 46.137 15.0313 46.5141 14.8149C46.6114 14.7574 46.7131 14.7076 46.8181 14.6659C46.303 14.0827 45.0075 11.2899 42.9759 5.81252C42.7808 5.28642 42.5766 4.73583 42.3616 4.15633C40.8866 5.50733 39.4032 6.85322 37.9291 8.20222C38.5234 9.92342 39.1155 11.6388 39.6939 13.361C26.4164 12.2157 32.5938 12.3901 32.5938 12.3901C39.3308 9.11544 40.1585 14.7061 40.4239 15.1222C42.726 18.7665 39.1558 18 39.1558 18C14.6558 12.5 18.6558 34 18.6558 34L12.9631 23.7044L12.9566 23.6871C11.6558 22 12.0488 19.8085 10.5492 18.3721C8.0957 18.2957 5.64791 18.2171 3.1931 18.1593C2.62705 18.1522 2.04973 18.2513 1.74847 17.5755C1.41395 16.8233 2.06305 16.5743 2.45256 16.2375L11.2851 8.50292C13.8868 6.23263 16.4862 3.96042 19.0832 1.68637C19.5741 1.23323 20.2202 0.987695 20.8881 1.00047C28.8516 1.07187 36.8115 1.15119 45.3311 1.22509C44.4573 2.08349 43.9201 2.6165 43.3874 3.13963C45.9037 9.54533 47.1026 13.6628 47.0713 14.5868C47.0731 14.5943 47.0732 14.6021 47.0717 14.6097L47.2296 14.5511C47.3025 14.5366 47.3763 14.5267 47.4506 14.5218C47.9476 14.4799 48.4452 14.603 48.8672 14.8724C49.2893 15.1417 49.6123 15.5423 49.787 16.0128Z" fill="#0058E0"/>

<!-- text -->
<text x="62" y="33" fill="#082A5E" font-size="24" font-family="Inter, Arial, sans-serif" font-weight="700">
CODEDOT
</text>

</svg>
