<svg width="152" height="49" viewBox="0 0 152 49" fill="none" xmlns="http://www.w3.org/2000/svg">
<path d="M49.787 16.0128C49.9394 16.423 49.972 16.868 49.8811 17.2952C49.7901 17.7224 49.5794 18.114 49.2737 18.4238C48.9679 18.7336 48.5801 18.9486 48.1558 19.0435C47.7315 19.1384 47.2885 19.1092 46.8792 18.9594C46.4698 18.8095 46.1111 18.5453 45.8454 18.1979C45.5798 17.8504 45.4182 17.4343 45.3798 16.9986C45.3414 16.5629 45.4278 16.1257 45.6288 15.7388C45.8298 15.3519 46.137 15.0313 46.5141 14.8149C46.6114 14.7574 46.7131 14.7076 46.8181 14.6659C46.303 14.0827 45.0075 11.2899 42.9759 5.81252C42.7808 5.28642 42.5766 4.73583 42.3616 4.15633C40.8866 5.50733 39.4032 6.85322 37.9291 8.20222C38.5234 9.92342 39.1155 11.6388 39.6939 13.361C26.4164 12.2157 32.5938 12.3901 32.5938 12.3901C39.3308 9.11544 40.1585 14.7061 40.4239 15.1222C42.726 18.7665 39.1558 18 39.1558 18C14.6558 12.5 18.6558 34 18.6558 34L12.9631 23.7044L12.9566 23.6871C11.6558 22 12.0488 19.8085 10.5492 18.3721C8.0957 18.2957 5.64791 18.2171 3.1931 18.1593C2.62705 18.1522 2.04973 18.2513 1.74847 17.5755C1.41395 16.8233 2.06305 16.5743 2.45256 16.2375L11.2851 8.50292C13.8868 6.23263 16.4862 3.96042 19.0832 1.68637C19.5741 1.23323 20.2202 0.987695 20.8881 1.00047C28.8516 1.07187 36.8115 1.15119 45.3311 1.22509C44.4573 2.08349 43.9201 2.6165 43.3874 3.13963C45.9037 9.54533 47.1026 13.6628 47.0713 14.5868C47.0731 14.5943 47.0732 14.6021 47.0717 14.6097L47.2296 14.5511C47.3025 14.5366 47.3763 14.5267 47.4506 14.5218C47.9476 14.4799 48.4452 14.603 48.8672 14.8724C49.2893 15.1417 49.6123 15.5423 49.787 16.0128Z" fill="#0058E0"/>
<path d="M33.8358 41.3C32.2558 41.3 30.7958 41.04 29.4558 40.52C28.1358 39.98 26.9858 39.23 26.0058 38.27C25.0258 37.29 24.2658 36.14 23.7258 34.82C23.2058 33.48 22.9458 32.01 22.9458 30.41C22.9458 28.85 23.2258 27.41 23.7858 26.09C24.3458 24.77 25.1158 23.63 26.0958 22.67C27.0958 21.69 28.2658 20.93 29.6058 20.39C30.9658 19.85 32.4458 19.58 34.0458 19.58C35.0458 19.58 36.0258 19.71 36.9858 19.97C37.9458 20.23 38.8358 20.62 39.6558 21.14C40.4958 21.64 41.2158 22.24 41.8158 22.94L38.6958 26.51C38.2758 26.07 37.8258 25.69 37.3458 25.37C36.8858 25.03 36.3758 24.77 35.8158 24.59C35.2558 24.41 34.6558 24.32 34.0158 24.32C33.2158 24.32 32.4558 24.47 31.7358 24.77C31.0358 25.05 30.4158 25.46 29.8758 26C29.3558 26.52 28.9458 27.16 28.6458 27.92C28.3458 28.68 28.1958 29.53 28.1958 30.47C28.1958 31.39 28.3458 32.23 28.6458 32.99C28.9458 33.73 29.3658 34.37 29.9058 34.91C30.4458 35.45 31.0958 35.86 31.8558 36.14C32.6358 36.42 33.4958 36.56 34.4358 36.56C35.0758 36.56 35.6858 36.47 36.2658 36.29C36.8458 36.11 37.3758 35.87 37.8558 35.57C38.3558 35.25 38.7958 34.89 39.1758 34.49L41.6358 38.39C41.1358 38.95 40.4658 39.45 39.6258 39.89C38.8058 40.33 37.8858 40.68 36.8658 40.94C35.8658 41.18 34.8558 41.3 33.8358 41.3ZM52.1158 41.3C50.4558 41.3 48.9758 40.94 47.6758 40.22C46.3958 39.5 45.3758 38.52 44.6158 37.28C43.8758 36.04 43.5058 34.62 43.5058 33.02C43.5058 31.42 43.8758 30 44.6158 28.76C45.3758 27.52 46.3958 26.54 47.6758 25.82C48.9758 25.1 50.4558 24.74 52.1158 24.74C53.7758 24.74 55.2458 25.1 56.5258 25.82C57.8258 26.54 58.8458 27.52 59.5858 28.76C60.3258 30 60.6958 31.42 60.6958 33.02C60.6958 34.62 60.3258 36.04 59.5858 37.28C58.8458 38.52 57.8258 39.5 56.5258 40.22C55.2458 40.94 53.7758 41.3 52.1158 41.3ZM52.1158 37.16C52.8358 37.16 53.4758 36.98 54.0358 36.62C54.5958 36.26 55.0358 35.77 55.3558 35.15C55.6758 34.53 55.8258 33.82 55.8058 33.02C55.8258 32.22 55.6758 31.51 55.3558 30.89C55.0358 30.25 54.5958 29.75 54.0358 29.39C53.4758 29.03 52.8358 28.85 52.1158 28.85C51.3958 28.85 50.7458 29.03 50.1658 29.39C49.6058 29.75 49.1658 30.25 48.8458 30.89C48.5258 31.51 48.3758 32.22 48.3958 33.02C48.3758 33.82 48.5258 34.53 48.8458 35.15C49.1658 35.77 49.6058 36.26 50.1658 36.62C50.7458 36.98 51.3958 37.16 52.1158 37.16ZM69.8646 41.33C68.4846 41.33 67.2546 40.98 66.1746 40.28C65.1146 39.56 64.2746 38.58 63.6546 37.34C63.0346 36.08 62.7246 34.65 62.7246 33.05C62.7246 31.45 63.0346 30.03 63.6546 28.79C64.2746 27.53 65.1246 26.54 66.2046 25.82C67.2846 25.1 68.5246 24.74 69.9246 24.74C70.6446 24.74 71.3346 24.85 71.9946 25.07C72.6546 25.29 73.2546 25.59 73.7946 25.97C74.3346 26.35 74.7746 26.79 75.1146 27.29C75.4546 27.77 75.6546 28.27 75.7146 28.79L74.5746 29.06V18.8H79.4046V41H74.9346L74.6646 37.37L75.6246 37.52C75.5646 38.02 75.3646 38.5 75.0246 38.96C74.7046 39.42 74.2846 39.83 73.7646 40.19C73.2446 40.53 72.6446 40.8 71.9646 41C71.3046 41.22 70.6046 41.33 69.8646 41.33ZM71.0946 37.34C71.8346 37.34 72.4746 37.16 73.0146 36.8C73.5546 36.44 73.9646 35.94 74.2446 35.3C74.5446 34.66 74.6946 33.91 74.6946 33.05C74.6946 32.17 74.5446 31.41 74.2446 30.77C73.9646 30.13 73.5546 29.63 73.0146 29.27C72.4746 28.91 71.8346 28.73 71.0946 28.73C70.3546 28.73 69.7146 28.91 69.1746 29.27C68.6546 29.63 68.2446 30.13 67.9446 30.77C67.6446 31.41 67.4946 32.17 67.4946 33.05C67.4946 33.91 67.6446 34.66 67.9446 35.3C68.2446 35.94 68.6546 36.44 69.1746 36.8C69.7146 37.16 70.3546 37.34 71.0946 37.34ZM91.0535 41.3C89.2935 41.3 87.7635 40.95 86.4635 40.25C85.1635 39.53 84.1535 38.56 83.4335 37.34C82.7135 36.1 82.3535 34.69 82.3535 33.11C82.3535 31.89 82.5535 30.77 82.9535 29.75C83.3535 28.73 83.9135 27.85 84.6335 27.11C85.3535 26.35 86.2035 25.77 87.1835 25.37C88.1835 24.95 89.2735 24.74 90.4535 24.74C91.5735 24.74 92.5935 24.94 93.5135 25.34C94.4535 25.74 95.2635 26.3 95.9435 27.02C96.6235 27.74 97.1435 28.59 97.5035 29.57C97.8635 30.55 98.0235 31.62 97.9835 32.78L97.9535 34.07H85.2635L84.5735 31.37H94.0535L93.5435 31.94V31.34C93.5035 30.84 93.3435 30.4 93.0635 30.02C92.8035 29.62 92.4535 29.31 92.0135 29.09C91.5735 28.87 91.0735 28.76 90.5135 28.76C89.7335 28.76 89.0635 28.92 88.5035 29.24C87.9635 29.54 87.5535 29.99 87.2735 30.59C86.9935 31.17 86.8535 31.89 86.8535 32.75C86.8535 33.63 87.0335 34.4 87.3935 35.06C87.7735 35.7 88.3135 36.2 89.0135 36.56C89.7335 36.92 90.5835 37.1 91.5635 37.1C92.2435 37.1 92.8435 37 93.3635 36.8C93.9035 36.6 94.4835 36.26 95.1035 35.78L97.3535 38.96C96.7335 39.5 96.0735 39.94 95.3735 40.28C94.6735 40.62 93.9535 40.87 93.2135 41.03C92.4935 41.21 91.7735 41.3 91.0535 41.3ZM101.012 41V25.07H105.572L105.722 27.95L105.092 27.98C105.332 27.46 105.632 27 105.992 26.6C106.372 26.2 106.792 25.87 107.252 25.61C107.732 25.33 108.222 25.12 108.722 24.98C109.242 24.84 109.762 24.77 110.282 24.77C111.062 24.77 111.772 24.89 112.412 25.13C113.052 25.37 113.612 25.76 114.092 26.3C114.572 26.82 114.952 27.53 115.232 28.43L114.482 28.37L114.722 27.89C114.982 27.41 115.312 26.98 115.712 26.6C116.132 26.2 116.592 25.87 117.092 25.61C117.592 25.33 118.112 25.12 118.652 24.98C119.192 24.84 119.712 24.77 120.212 24.77C121.472 24.77 122.522 25.02 123.362 25.52C124.202 26 124.832 26.73 125.252 27.71C125.692 28.69 125.912 29.88 125.912 31.28V41H121.082V31.67C121.082 31.03 120.992 30.5 120.812 30.08C120.632 29.66 120.362 29.35 120.002 29.15C119.662 28.93 119.232 28.82 118.712 28.82C118.292 28.82 117.902 28.89 117.542 29.03C117.202 29.17 116.902 29.36 116.642 29.6C116.402 29.84 116.212 30.12 116.072 30.44C115.932 30.76 115.862 31.12 115.862 31.52V41H111.032V31.64C111.032 31.04 110.942 30.53 110.762 30.11C110.582 29.69 110.312 29.37 109.952 29.15C109.592 28.93 109.172 28.82 108.692 28.82C108.272 28.82 107.882 28.89 107.522 29.03C107.182 29.17 106.882 29.36 106.622 29.6C106.382 29.84 106.192 30.12 106.052 30.44C105.912 30.76 105.842 31.11 105.842 31.49V41H101.012ZM131.763 47.9L135.393 39.35L135.453 41.81L127.773 25.07H133.203L136.563 33.08C136.743 33.48 136.913 33.91 137.073 34.37C137.233 34.83 137.353 35.27 137.433 35.69L136.773 36.08C136.893 35.78 137.023 35.41 137.163 34.97C137.323 34.51 137.493 34.02 137.673 33.5L140.613 25.07H146.073L139.293 41L136.533 47.9H131.763Z" fill="#082A5E"/>
</svg>
